<svg xmlns="http://www.w3.org/2000/svg" viewBox="0 0 392 131.03"><defs><style>.cls-1{fill:#a6a6a6;}.cls-2{fill:#fff;}</style></defs><title>Recurso 3</title><g id="Capa_2" data-name="Capa 2"><g id="livetype"><path class="cls-1" d="M360.78,0H27.65c-1,0-2,0-3,0a42.55,42.55,0,0,0-6.57.58,21.76,21.76,0,0,0-6.22,2.05A21.25,21.25,0,0,0,6.54,6.54a20.83,20.83,0,0,0-3.86,5.31,21.76,21.76,0,0,0-2,6.24,42.43,42.43,0,0,0-.59,6.56c0,1,0,2,0,3v75.72c0,1,0,2,.05,3A42.43,42.43,0,0,0,.64,113a21.86,21.86,0,0,0,2,6.24,21.11,21.11,0,0,0,9.17,9.15,22.09,22.09,0,0,0,6.22,2.06,43.82,43.82,0,0,0,6.57.58c1,0,2,0,3,0H364.33c1,0,2,0,3,0a43.69,43.69,0,0,0,6.56-.58,22.28,22.28,0,0,0,6.25-2.06,20.55,20.55,0,0,0,5.29-3.86,21.22,21.22,0,0,0,3.88-5.29,21.82,21.82,0,0,0,2-6.24,43.73,43.73,0,0,0,.61-6.56c0-1,0-2,0-3,0-1.19,0-2.37,0-3.58V31.24c0-1.2,0-2.39,0-3.58,0-1,0-2,0-3a43.73,43.73,0,0,0-.61-6.56,21.82,21.82,0,0,0-2-6.24,21.21,21.21,0,0,0-9.17-9.17A22.26,22.26,0,0,0,373.91.63a42.42,42.42,0,0,0-6.56-.58c-1,0-2,0-3,0Z"/><path d="M27.66,128.17c-1,0-2,0-3,0a40.45,40.45,0,0,1-6.12-.53,19.27,19.27,0,0,1-5.43-1.8,17.41,17.41,0,0,1-4.57-3.33,17.32,17.32,0,0,1-3.35-4.57,19.23,19.23,0,0,1-1.78-5.43,40.72,40.72,0,0,1-.54-6.14c0-.69-.05-3-.05-3V27.66s0-2.26.05-2.93a39.44,39.44,0,0,1,.54-6.13,18.74,18.74,0,0,1,1.78-5.45A17.41,17.41,0,0,1,8.56,8.58a18.05,18.05,0,0,1,4.59-3.35,18.87,18.87,0,0,1,5.42-1.79,40.71,40.71,0,0,1,6.14-.53l3,0H364.32l3,0a40.17,40.17,0,0,1,6.09.53,19.21,19.21,0,0,1,5.47,1.8,18.28,18.28,0,0,1,7.91,7.92,18.79,18.79,0,0,1,1.76,5.4,41.4,41.4,0,0,1,.56,6.19c0,.92,0,1.92,0,2.91,0,1.23,0,2.4,0,3.58V99.8c0,1.19,0,2.35,0,3.52s0,2,0,3.05a41.27,41.27,0,0,1-.56,6.07,18.55,18.55,0,0,1-1.77,5.47,17.86,17.86,0,0,1-3.32,4.54,18.05,18.05,0,0,1-4.59,3.35,19.15,19.15,0,0,1-5.46,1.8,40.58,40.58,0,0,1-6.13.53c-1,0-2,0-2.94,0H27.66Z"/><g id="_Group_" data-name=" Group "><g id="_Group_2" data-name=" Group 2"><g id="_Group_3" data-name=" Group 3"><path id="_Path_" data-name=" Path " class="cls-2" d="M81.14,66.5a16.19,16.19,0,0,1,7.72-13.6,16.64,16.64,0,0,0-13.08-7.07c-5.5-.57-10.83,3.29-13.63,3.29S55,45.89,50.33,46a17.41,17.41,0,0,0-14.66,8.93c-6.33,11-1.61,27.09,4.46,36,3,4.34,6.59,9.19,11.23,9S57.6,97,63.09,97s7,2.9,11.76,2.79,8-4.36,10.88-8.75a35.77,35.77,0,0,0,5-10.13A15.67,15.67,0,0,1,81.14,66.5Z"/><path id="_Path_2" data-name=" Path 2" class="cls-2" d="M72.19,40a15.93,15.93,0,0,0,3.65-11.43A16.22,16.22,0,0,0,65.33,34a15.2,15.2,0,0,0-3.74,11A13.4,13.4,0,0,0,72.19,40Z"/></g></g><path class="cls-2" d="M138.58,88.91H123.07l-3.72,11h-6.57l14.68-40.68h6.83L149,99.9H142.3Zm-13.9-5.08H137L130.91,66h-.17Z"/><path class="cls-2" d="M180.69,85.07c0,9.22-4.93,15.14-12.37,15.14A10,10,0,0,1,159,95h-.15v14.69h-6.08V70.24h5.89v4.94h.11a10.52,10.52,0,0,1,9.45-5.25C175.73,69.93,180.69,75.88,180.69,85.07Zm-6.25,0c0-6-3.11-9.95-7.84-9.95s-7.78,4-7.78,9.95,3.13,10,7.78,10S174.44,91.13,174.44,85.07Z"/><path class="cls-2" d="M213.34,85.07c0,9.22-4.94,15.14-12.38,15.14A10,10,0,0,1,191.63,95h-.14v14.69H185.4V70.24h5.89v4.94h.11a10.54,10.54,0,0,1,9.45-5.25C208.38,69.93,213.34,75.88,213.34,85.07Zm-6.26,0c0-6-3.1-9.95-7.84-9.95s-7.78,4-7.78,9.95,3.13,10,7.78,10,7.84-3.92,7.84-10Z"/><path class="cls-2" d="M234.91,88.57c.45,4,4.37,6.68,9.73,6.68,5.13,0,8.82-2.65,8.82-6.29,0-3.15-2.23-5-7.5-6.34l-5.27-1.27c-7.47-1.81-10.94-5.3-10.94-11,0-7,6.12-11.84,14.8-11.84S259,63.36,259.24,70.38H253.1c-.37-4.06-3.73-6.51-8.63-6.51s-8.26,2.48-8.26,6.09c0,2.88,2.14,4.57,7.38,5.86l4.49,1.1c8.34,2,11.81,5.33,11.81,11.28,0,7.61-6.06,12.38-15.7,12.38-9,0-15.12-4.66-15.51-12Z"/><path class="cls-2" d="M273,63.22v7h5.64v4.82H273V91.41c0,2.54,1.13,3.73,3.61,3.73a19,19,0,0,0,2-.14v4.79a16.65,16.65,0,0,1-3.38.28c-6,0-8.35-2.26-8.35-8v-17H262.6V70.24h4.31v-7Z"/><path class="cls-2" d="M281.93,85.07c0-9.33,5.5-15.19,14.07-15.19s14.07,5.86,14.07,15.19-5.44,15.2-14.07,15.2S281.93,94.43,281.93,85.07Zm21.94,0c0-6.4-2.94-10.18-7.87-10.18s-7.86,3.81-7.86,10.18,2.93,10.18,7.86,10.18,7.87-3.75,7.87-10.18Z"/><path class="cls-2" d="M315.09,70.24h5.81v5.05H321a7.07,7.07,0,0,1,7.13-5.36,9.84,9.84,0,0,1,2.09.23v5.69a8.47,8.47,0,0,0-2.74-.36,6.14,6.14,0,0,0-6.38,5.88,5.92,5.92,0,0,0,0,.94V99.9h-6.09Z"/><path class="cls-2" d="M358.33,91.19c-.82,5.38-6.07,9.08-12.78,9.08-8.62,0-14-5.78-14-15.06S337,69.88,345.3,69.88s13.36,5.63,13.36,14.63v2.08H337.72V87a7.73,7.73,0,0,0,7,8.38c.32,0,.64,0,1,0a6.7,6.7,0,0,0,6.84-4.17Zm-20.58-8.85h14.82a7.13,7.13,0,0,0-6.72-7.52h-.55a7.51,7.51,0,0,0-7.55,7.46Z"/></g><g id="_Group_4" data-name=" Group 4"><path class="cls-2" d="M116.06,38.38c0-6.34,3.37-10.25,8.8-10.25A7.81,7.81,0,0,1,133,34.9h-3A5,5,0,0,0,124.86,31c-3.51,0-5.7,2.86-5.7,7.42s2.19,7.41,5.71,7.41a4.91,4.91,0,0,0,5.1-3.6h3a7.63,7.63,0,0,1-8.12,6.43C119.44,48.62,116.06,44.71,116.06,38.38Z"/><path class="cls-2" d="M136.31,40.77a7,7,0,1,1,13.91-1.33,7.39,7.39,0,0,1,0,1.33,7,7,0,0,1-13.91,1.35A6.09,6.09,0,0,1,136.31,40.77Zm10.92,0c0-3.2-1.44-5.07-4-5.07s-4,1.87-4,5.07,1.42,5.07,4,5.07S147.23,44,147.23,40.77Z"/><path class="cls-2" d="M154.13,33.4h2.8v2.34h.22a4.42,4.42,0,0,1,4.4-2.63,4.79,4.79,0,0,1,5.14,4.43,4.7,4.7,0,0,1,0,1.06v9.55h-2.92V39.33c0-2.37-1-3.55-3.18-3.55A3.39,3.39,0,0,0,157,39a4.52,4.52,0,0,0,0,.52v8.63h-2.91Z"/><path class="cls-2" d="M176.55,33.11c3.32,0,5.49,1.55,5.77,4.15h-2.79c-.27-1.09-1.33-1.78-3-1.78s-2.86.77-2.86,1.93c0,.88.75,1.43,2.34,1.8l2.46.57c2.8.65,4.12,1.85,4.12,4,0,2.78-2.59,4.63-6.11,4.63s-5.8-1.58-6.06-4.2h2.91a3,3,0,0,0,3.21,1.84c1.82,0,3.11-.81,3.11-2,0-.88-.7-1.45-2.17-1.8l-2.58-.59c-2.8-.67-4.1-1.93-4.1-4.12C170.82,35,173.22,33.11,176.55,33.11Z"/><path class="cls-2" d="M186.28,30.93l3.4-4.66h3.42l-3.81,4.66Zm.3,2.47h2.9V48.15h-2.9Z"/><path class="cls-2" d="M194,49.62h3c.25,1.07,1.48,1.77,3.44,1.77,2.43,0,3.87-1.16,3.87-3.11V45.45h-.22a4.94,4.94,0,0,1-4.55,2.48c-3.77,0-6.1-2.91-6.1-7.33s2.36-7.45,6.12-7.45a5.15,5.15,0,0,1,4.64,2.6h.23V33.4h2.79V48.27c0,3.37-2.65,5.51-6.82,5.51C196.71,53.78,194.32,52.13,194,49.62Zm10.34-9c0-2.94-1.52-4.82-4-4.82s-3.91,1.88-3.91,4.82,1.41,4.82,3.91,4.82S204.35,43.54,204.35,40.59Z"/><path class="cls-2" d="M224.28,48.15h-2.8V45.8h-.23a4.42,4.42,0,0,1-4.46,2.63A4.79,4.79,0,0,1,211.67,44a5,5,0,0,1,0-1V33.4h2.91v8.82c0,2.38,1,3.52,3.1,3.52a3.35,3.35,0,0,0,3.65-3,3.28,3.28,0,0,0,0-.7V33.4h2.91Z"/><path class="cls-2" d="M241.39,44.17A6,6,0,0,1,235,48.43a6.7,6.7,0,0,1-6.81-7.61A6.8,6.8,0,0,1,234,33.17a7.73,7.73,0,0,1,1-.06c4.1,0,6.58,2.81,6.58,7.44v1H231.15v.17a3.91,3.91,0,0,0,3.56,4.21h.37a3.52,3.52,0,0,0,3.51-1.79Zm-10.24-4.76h7.45a3.55,3.55,0,0,0-3.28-3.81H235a3.77,3.77,0,0,0-3.82,3.72Z"/><path class="cls-2" d="M245.61,27.64h2.91V48.15h-2.91Z"/><path class="cls-2" d="M252.57,40.77a7,7,0,1,1,13.91-1.33,5.91,5.91,0,0,1,0,1.33,7,7,0,1,1-13.91,1.35A7.61,7.61,0,0,1,252.57,40.77Zm10.92,0c0-3.2-1.44-5.07-4-5.07s-3.95,1.87-3.95,5.07,1.42,5.07,3.95,5.07S263.49,44,263.49,40.77Z"/><path class="cls-2" d="M290.87,44.17a6,6,0,0,1-6.4,4.26,6.7,6.7,0,0,1-6.81-7.61,6.81,6.81,0,0,1,5.84-7.65,7.73,7.73,0,0,1,1-.06c4.11,0,6.58,2.81,6.58,7.44v1H280.63v.17a3.9,3.9,0,0,0,3.55,4.21h.37a3.52,3.52,0,0,0,3.51-1.79Zm-10.24-4.76h7.45a3.56,3.56,0,0,0-3.29-3.81h-.34a3.76,3.76,0,0,0-3.82,3.72v.1Z"/><path class="cls-2" d="M295,33.4h2.8v2.34H298a4.44,4.44,0,0,1,4.4-2.63,4.8,4.8,0,0,1,5.15,4.43,5.38,5.38,0,0,1,0,1.06v9.55h-2.91V39.33c0-2.37-1-3.55-3.18-3.55A3.38,3.38,0,0,0,297.85,39a3,3,0,0,0,0,.52v8.63H295Z"/><path class="cls-2" d="M332.46,44.17a6,6,0,0,1-6.39,4.26,6.7,6.7,0,0,1-6.82-7.61,6.81,6.81,0,0,1,5.84-7.65,7.73,7.73,0,0,1,1-.06c4.11,0,6.58,2.81,6.58,7.44v1H322.22v.17a3.9,3.9,0,0,0,3.56,4.21h.37a3.53,3.53,0,0,0,3.51-1.79Zm-10.24-4.76h7.45a3.56,3.56,0,0,0-3.29-3.81H326a3.76,3.76,0,0,0-3.82,3.72v.1Z"/><path class="cls-2" d="M336.68,27.64h2.91V48.15h-2.91Z"/></g></g></g></svg>