<svg width="20" height="20" viewBox="0 0 20 20" fill="none" xmlns="http://www.w3.org/2000/svg">
<path d="M18.8923 0H1.1C0.492308 0 0 0.48482 0 1.07738V18.4155C0 19.008 0.492308 19.4929 1.10769 19.4929H18.8923C19.5077 19.4929 20 19.008 20 18.4155V1.07738C20 0.48482 19.5077 0 18.8923 0Z" fill="#1BBCB2"/>
<path d="M13.808 19.4927V11.9588H16.4157L16.808 9.00367H13.808V7.12596C13.808 6.27175 14.0542 5.69458 15.308 5.69458H16.8927V3.0627C16.6157 3.02422 15.6696 2.94727 14.5696 2.94727C12.2619 2.94727 10.685 4.31708 10.685 6.83352V9.00367H8.08496V11.9588H10.685V19.4927H13.808Z" fill="#2C3747"/>
</svg>
