<svg width="96" height="96" viewBox="0 0 96 96" fill="none" xmlns="http://www.w3.org/2000/svg">
<path fill-rule="evenodd" clip-rule="evenodd" d="M12 18C9.79086 18 8 19.7909 8 22V38C8 40.2091 9.79086 42 12 42H32L38.2929 48.2929C38.9229 48.9229 40 48.4767 40 47.5858V42H44C46.2091 42 48 40.2091 48 38V22C48 19.7909 46.2091 18 44 18H12Z" fill="#1BBCB2"/>
<path fill-rule="evenodd" clip-rule="evenodd" d="M84 42C86.2091 42 88 43.7909 88 46V62C88 64.2091 86.2091 66 84 66H64.0002L57.7073 72.2929C57.0774 72.9229 56.0002 72.4767 56.0002 71.5858V66H52C49.7909 66 48 64.2091 48 62V46C48 43.7909 49.7909 42 52 42H84Z" fill="#FFC95C"/>
<rect x="25" y="9" width="46" height="78" rx="7" stroke="#5C7190" stroke-width="2"/>
<line x1="37" y1="79" x2="59" y2="79" stroke="#5C7190" stroke-width="2" stroke-linecap="round"/>
</svg>
