<svg width="526" height="487" viewBox="0 0 526 487" fill="none" xmlns="http://www.w3.org/2000/svg">
<circle cx="300.5" cy="274.5" r="193.5" stroke="#5C7190" stroke-width="5.22973" stroke-linecap="round" stroke-dasharray="0.01 15.69"/>
<path d="M462.487 298.943C470.488 298.943 476.974 292.46 476.974 284.461C476.974 276.463 470.488 269.979 462.487 269.979C454.486 269.979 448 276.463 448 284.461C448 292.46 454.486 298.943 462.487 298.943Z" fill="#FCC85C"/>
<path d="M503.011 249.493V251.871" stroke="#5C718F" stroke-miterlimit="10"/>
<path d="M503.011 256.817V268.98C503.011 273.159 501.351 277.166 498.395 280.12C495.44 283.075 491.431 284.735 487.251 284.735H467.209" stroke="#5C718F" stroke-miterlimit="10" stroke-dasharray="4.16 4.16"/>
<path d="M464.747 284.723H462.368" stroke="#5C718F" stroke-miterlimit="10"/>
<path d="M462.475 282.5C462.033 282.5 461.601 282.631 461.233 282.876C460.865 283.122 460.579 283.471 460.409 283.879C460.24 284.288 460.196 284.737 460.282 285.171C460.368 285.605 460.581 286.003 460.894 286.316C461.207 286.628 461.605 286.841 462.039 286.927C462.473 287.013 462.922 286.969 463.331 286.8C463.74 286.631 464.089 286.344 464.334 285.977C464.58 285.609 464.711 285.177 464.711 284.735C464.711 284.142 464.476 283.573 464.056 283.154C463.637 282.735 463.068 282.5 462.475 282.5V282.5Z" fill="#5C718F"/>
<path d="M465.033 205H513.335C514.925 205 516.5 205.313 517.969 205.921C519.438 206.53 520.773 207.421 521.897 208.545C523.021 209.669 523.913 211.004 524.522 212.472C525.13 213.941 525.444 215.515 525.444 217.104V236.616C525.444 238.205 525.13 239.779 524.522 241.248C523.913 242.716 523.021 244.051 521.897 245.175C520.773 246.299 519.438 247.19 517.969 247.798C516.5 248.407 514.925 248.72 513.335 248.72H452.924V217.104C452.924 213.894 454.2 210.815 456.471 208.545C458.741 206.275 461.821 205 465.033 205V205Z" fill="#FFE9C3"/>
<path d="M508.102 217.116H464.878C464.077 217.116 463.427 217.765 463.427 218.567V218.578C463.427 219.38 464.077 220.029 464.878 220.029H508.102C508.903 220.029 509.553 219.38 509.553 218.578V218.567C509.553 217.765 508.903 217.116 508.102 217.116Z" fill="#FCC85C"/>
<path d="M482.541 225.403H464.878C464.077 225.403 463.427 226.053 463.427 226.854V226.866C463.427 227.667 464.077 228.316 464.878 228.316H482.541C483.342 228.316 483.992 227.667 483.992 226.866V226.854C483.992 226.053 483.342 225.403 482.541 225.403Z" fill="#FCC85C"/>
<path d="M339.704 142.978C340.18 141.349 340.424 139.662 340.429 137.965H338.828C338.83 139.513 338.612 141.054 338.182 142.542L339.704 142.978ZM340.429 137.965C340.43 136.265 340.191 134.573 339.719 132.939L338.182 133.385C338.608 134.874 338.82 136.416 338.813 137.965H340.429ZM342.43 132.361H338.934V133.961H342.415L342.43 132.361ZM344.831 134.764C344.832 134.449 344.77 134.136 344.649 133.845C344.529 133.553 344.352 133.288 344.129 133.065C343.906 132.842 343.641 132.664 343.35 132.544C343.058 132.423 342.746 132.361 342.43 132.361V133.961C342.643 133.962 342.846 134.047 342.996 134.197C343.146 134.348 343.23 134.552 343.23 134.764H344.831ZM344.831 141.165V134.752H343.23V141.153L344.831 141.165ZM342.43 143.566C343.067 143.566 343.678 143.313 344.128 142.863C344.578 142.413 344.831 141.802 344.831 141.165H343.23C343.23 141.378 343.146 141.581 342.996 141.731C342.846 141.881 342.642 141.966 342.43 141.966V143.566ZM338.949 143.566H342.43V141.966H338.934L338.949 143.566ZM302.401 143.566H305.864V141.966H302.386L302.401 143.566ZM300 141.165C300 141.802 300.253 142.413 300.703 142.863C301.154 143.313 301.764 143.566 302.401 143.566V141.966C302.189 141.966 301.985 141.881 301.835 141.731C301.685 141.581 301.601 141.378 301.601 141.165H300ZM300 134.764V141.165H301.601V134.752L300 134.764ZM302.401 132.361C302.086 132.361 301.773 132.423 301.482 132.544C301.19 132.664 300.925 132.842 300.702 133.065C300.479 133.288 300.302 133.553 300.182 133.845C300.061 134.136 300 134.449 300 134.764H301.601C301.601 134.552 301.685 134.348 301.835 134.197C301.985 134.047 302.189 133.962 302.401 133.961V132.361ZM305.882 132.361H302.386V133.961H305.864L305.882 132.361ZM305.112 132.939C304.635 134.572 304.391 136.264 304.387 137.965H305.988C305.987 136.415 306.206 134.873 306.637 133.385L305.112 132.939ZM304.387 137.965C304.387 139.665 304.625 141.357 305.097 142.99L306.637 142.542C306.206 141.054 305.987 139.513 305.988 137.965H304.387ZM338.934 132.361H337.87L338.173 133.385L338.94 133.161L338.934 132.361ZM338.17 142.542L337.867 143.566H338.931V142.754L338.17 142.542ZM306.637 133.385L306.94 132.361H305.864V133.161L306.637 133.385ZM305.864 143.554H306.931L306.628 142.529L305.858 142.754L305.864 143.554Z" fill="#9DD3CF"/>
<path d="M322.401 135.952C322.663 135.952 322.924 136.003 323.167 136.104C323.41 136.204 323.631 136.351 323.816 136.537C324.002 136.723 324.15 136.944 324.25 137.187C324.351 137.429 324.402 137.69 324.402 137.953H323.601C323.601 137.631 323.473 137.323 323.246 137.095C323.019 136.868 322.71 136.74 322.388 136.74L322.401 135.952ZM320.399 137.953C320.399 137.422 320.61 136.913 320.986 136.538C321.361 136.163 321.87 135.952 322.401 135.952V136.752C322.079 136.752 321.77 136.88 321.543 137.107C321.316 137.335 321.188 137.643 321.188 137.965L320.399 137.953ZM322.401 139.953C321.87 139.952 321.362 139.741 320.986 139.366C320.611 138.991 320.4 138.483 320.399 137.953H321.2C321.2 138.274 321.328 138.583 321.555 138.81C321.783 139.037 322.091 139.165 322.413 139.165L322.401 139.953ZM324.402 137.953C324.402 138.483 324.191 138.992 323.816 139.367C323.44 139.742 322.931 139.953 322.401 139.953V139.153C322.722 139.153 323.031 139.025 323.258 138.798C323.486 138.57 323.613 138.262 323.613 137.94L324.402 137.953Z" fill="#9DD3CF"/>
<path d="M327.804 155.959C327.988 155.958 328.171 155.994 328.342 156.064C328.513 156.135 328.668 156.238 328.799 156.368C328.93 156.499 329.034 156.654 329.104 156.824C329.175 156.995 329.211 157.178 329.21 157.363H330.811C330.811 156.566 330.494 155.803 329.93 155.241C329.367 154.678 328.603 154.362 327.807 154.362L327.804 155.959ZM322.601 154.359C321.805 154.359 321.041 154.675 320.478 155.238C319.915 155.8 319.599 156.564 319.599 157.36H321.2C321.2 156.988 321.347 156.632 321.61 156.369C321.873 156.107 322.229 155.959 322.601 155.959V154.359ZM319.599 157.36C319.599 158.155 319.915 158.919 320.478 159.481C321.041 160.044 321.805 160.36 322.601 160.36V158.76C322.229 158.76 321.873 158.612 321.61 158.35C321.347 158.087 321.2 157.731 321.2 157.36H319.599ZM327.804 160.36C328.6 160.36 329.364 160.044 329.927 159.481C330.491 158.919 330.808 158.156 330.808 157.36H329.21C329.21 157.544 329.174 157.726 329.104 157.896C329.033 158.066 328.93 158.221 328.799 158.351C328.669 158.481 328.514 158.584 328.344 158.654C328.173 158.724 327.991 158.76 327.807 158.76L327.804 160.36ZM322.601 160.36H327.804V158.76H322.601V160.36ZM327.804 154.359H322.601V155.959H327.804V154.359Z" fill="#9DD3CF"/>
<path d="M322.358 120C319.993 120 317.651 120.466 315.466 121.372C313.282 122.277 311.297 123.604 309.625 125.277C307.953 126.95 306.628 128.936 305.724 131.122C304.82 133.307 304.355 135.649 304.357 138.014H305.157C305.157 133.452 306.969 129.077 310.195 125.851C313.421 122.624 317.796 120.812 322.358 120.812V120ZM340.374 138.014C340.374 133.24 338.477 128.661 335.101 125.285C331.726 121.909 327.147 120.012 322.373 120.012V120.812C326.932 120.816 331.304 122.63 334.526 125.856C337.749 129.082 339.559 133.455 339.559 138.014H340.374ZM304.372 138.014C304.372 142.789 306.269 147.368 309.644 150.744C313.02 154.12 317.599 156.017 322.373 156.017V155.217C320.113 155.219 317.874 154.775 315.786 153.912C313.697 153.048 311.799 151.781 310.2 150.184C308.601 148.586 307.333 146.689 306.468 144.601C305.602 142.513 305.157 140.275 305.157 138.014H304.372Z" fill="#9DD3CF"/>
<path d="M148.501 174.415C148.36 174.442 148.214 174.442 148.073 174.415L25.9776 114.378C25.848 114.333 25.7295 114.26 25.63 114.165C25.5305 114.07 25.4523 113.955 25.4005 113.828C25.3487 113.7 25.3245 113.563 25.3295 113.426C25.3345 113.289 25.3686 113.154 25.4296 113.03C25.4905 112.907 25.5769 112.798 25.6831 112.711C25.7892 112.623 25.9127 112.559 26.0454 112.523C26.178 112.487 26.3168 112.479 26.4527 112.501C26.5885 112.522 26.7183 112.572 26.8334 112.648L148.948 172.567C149.063 172.623 149.166 172.701 149.251 172.797C149.336 172.893 149.401 173.005 149.442 173.126C149.484 173.247 149.501 173.375 149.493 173.503C149.485 173.63 149.452 173.755 149.396 173.87C149.31 174.034 149.182 174.171 149.024 174.267C148.866 174.363 148.685 174.414 148.501 174.415V174.415Z" fill="#E6E7E8"/>
<path d="M372.155 138.377C372.155 138.377 377.989 126.942 377.075 122.294C376.161 117.646 374.663 103.682 374.663 103.682L412.996 107.241L400.666 151.719" fill="white"/>
<path d="M400.627 152.73H400.354C400.101 152.657 399.886 152.489 399.755 152.26C399.624 152.031 399.588 151.76 399.654 151.505L411.654 108.155L375.791 104.829C376.219 108.33 377.405 118.443 378.067 122.158C378.942 127.078 373.302 138.377 373.049 138.864C372.928 139.099 372.72 139.277 372.469 139.361C372.219 139.444 371.945 139.426 371.707 139.311C371.589 139.253 371.483 139.172 371.397 139.073C371.31 138.974 371.244 138.859 371.202 138.734C371.161 138.609 371.144 138.477 371.154 138.345C371.164 138.214 371.2 138.086 371.26 137.969C372.816 134.857 376.725 126.047 376.102 122.41C375.286 117.782 373.73 104.304 373.671 103.721C373.654 103.573 373.669 103.423 373.716 103.282C373.763 103.141 373.841 103.012 373.944 102.904C374.051 102.799 374.179 102.718 374.32 102.668C374.461 102.618 374.611 102.599 374.761 102.612L412.996 106.21C413.142 106.227 413.282 106.273 413.41 106.347C413.537 106.421 413.647 106.52 413.735 106.638C413.818 106.759 413.873 106.896 413.896 107.041C413.92 107.185 413.911 107.333 413.871 107.474L401.56 151.972C401.509 152.183 401.39 152.371 401.221 152.508C401.053 152.645 400.844 152.723 400.627 152.73V152.73Z" fill="#3E4C62"/>
<path d="M104.12 194.388C104.12 194.388 104.47 171.75 104.12 166.655C103.77 161.56 111.413 133.204 109.585 128.751C107.757 124.297 102.662 122.566 100.834 127.817C99.0055 133.068 95.7187 144.737 95.7187 144.737C95.7187 144.737 75.6483 132.368 71.6225 140.847C67.5967 149.327 63.8432 165.099 68.0829 169.125C70.6607 171.524 73.9531 173.013 77.4569 173.365L76.3678 202.09L104.12 194.388Z" fill="white"/>
<path d="M76.3678 203.159C76.1428 203.156 75.9247 203.081 75.7455 202.945C75.6216 202.85 75.5231 202.725 75.4587 202.583C75.3942 202.44 75.3658 202.284 75.376 202.128L76.4262 174.337C73.0497 173.796 69.9094 172.267 67.4023 169.942C62.3068 165.157 67.13 148.14 70.7084 140.497C71.0755 139.705 71.6155 139.006 72.2887 138.451C72.9618 137.895 73.751 137.498 74.5981 137.288C80.802 135.343 91.6346 141.178 95.1936 143.123C96.0882 139.953 98.4998 131.59 99.9584 127.389C100.207 126.349 100.777 125.414 101.587 124.716C102.397 124.018 103.405 123.593 104.47 123.5C105.85 123.603 107.168 124.112 108.258 124.963C109.349 125.815 110.162 126.97 110.597 128.284C111.686 130.968 110.149 139.272 107.64 151.622C106.463 156.502 105.644 161.461 105.19 166.46C105.559 171.556 105.19 193.357 105.19 194.291C105.193 194.507 105.124 194.718 104.994 194.891C104.863 195.063 104.679 195.187 104.47 195.244L76.7179 203.023C76.6168 203.101 76.4952 203.148 76.3678 203.159V203.159ZM77.3402 138.98C76.5848 138.973 75.8319 139.071 75.1037 139.272C74.5419 139.417 74.0197 139.687 73.5755 140.06C73.1313 140.434 72.7763 140.902 72.5366 141.431C68.6469 149.891 65.0296 165.021 68.7636 168.541C71.1812 170.754 74.2531 172.119 77.5153 172.431C77.7801 172.446 78.0284 172.565 78.2067 172.761C78.3849 172.958 78.4789 173.216 78.4682 173.481L77.418 200.825L103.128 193.629C103.128 189.74 103.44 171.206 103.128 166.713C103.543 161.527 104.375 156.382 105.618 151.33C107.31 142.928 109.624 131.434 108.691 129.12C108.398 128.189 107.845 127.361 107.098 126.734C106.35 126.106 105.438 125.706 104.47 125.58C102.973 125.58 102.195 127 101.806 128.148C99.9973 133.301 96.73 144.892 96.7106 145.009C96.6662 145.158 96.589 145.294 96.4846 145.409C96.3803 145.523 96.2514 145.613 96.1077 145.67C95.9695 145.742 95.8161 145.779 95.6604 145.779C95.5047 145.779 95.3513 145.742 95.2131 145.67C95.0769 145.515 84.3221 138.902 77.3402 138.902V138.98Z" fill="#3E4C62"/>
<path d="M182.496 334.05L157.972 431.077L212.472 467.7L238.215 381.931L285.552 459.2L322.62 431.077L285.552 290L182.496 334.05Z" fill="#3E4C62"/>
<path d="M277.792 316.95L177.284 335.698L202.275 187.251C202.275 187.251 253.443 176.982 265.812 176.982C276.236 176.904 277.792 316.95 277.792 316.95Z" fill="white"/>
<path d="M177.284 336.593C177.031 336.594 176.786 336.497 176.604 336.321C176.492 336.21 176.407 336.076 176.357 335.927C176.306 335.779 176.291 335.62 176.312 335.465L201.303 186.998C201.341 186.806 201.436 186.63 201.574 186.491C201.712 186.353 201.889 186.258 202.081 186.22C204.162 185.792 253.482 175.932 265.812 175.932C268.029 175.932 273.241 176.049 276.664 246.879C278.337 281.496 278.745 316.581 278.765 316.892C278.765 317.121 278.685 317.343 278.54 317.521C278.394 317.698 278.192 317.819 277.967 317.864L177.44 336.535L177.284 336.593ZM203.111 187.99L178.471 334.415L276.82 316.133C275.925 238.535 271.102 177.877 265.812 177.877C254.435 177.877 209.121 186.784 203.111 187.99Z" fill="#3E4C62"/>
<path d="M219.292 176.904C217.795 177.877 222.171 199.483 222.423 201.428C224.612 221.026 225.676 240.734 225.613 260.453C225.454 282.458 221.132 304.235 212.874 324.632C209.16 334.064 204.842 343.283 200.311 352.346C195.78 361.409 186.872 362.964 177.382 362.284C167.227 361.548 157.188 359.676 147.451 356.702C143.958 355.955 140.768 354.181 138.291 351.607C134.401 346.647 138.641 339.938 140.858 335.192C144.009 328.444 147.023 321.579 149.843 314.733C154.336 303.667 166.452 277.14 169.544 265.607C173.57 250.613 167.599 250.574 168.299 235.073C168.591 228.811 168.669 222.549 168.922 216.287C169.058 212.533 167.93 200.728 170.38 197.889C189.109 176.321 219.292 176.904 219.292 176.904Z" fill="#30B4AD"/>
<path d="M294.362 173.442C294.984 173.559 291.931 223.852 292.145 226.361C293.759 245.439 321.706 320.47 321.706 320.47C321.706 327.374 252.023 368.702 247.57 356.313C268.224 247.404 253.988 176.943 253.502 176.904C253.521 176.904 278.317 170.389 294.362 173.442Z" fill="#30B4AD"/>
<path d="M294.362 173.442C294.362 173.442 330.827 185.695 340.182 182.952C349.536 180.21 368.459 135.382 368.459 135.382L406.792 140.147C406.792 140.147 390.805 234.976 360.388 240.072C329.972 245.167 289.539 231.612 289.539 231.612L294.362 173.442Z" fill="#30B4AD"/>
<path d="M205.64 138.377C204.084 131.337 201.984 124.375 201.361 117.198C200.739 110.022 201.711 102.418 205.776 96.4862C210.152 90.1072 215.733 90.8462 222.462 89.9711C231.389 88.8042 239.363 84.3311 247.648 81.1027C249.223 80.4804 251.673 80.3442 251.965 82.0168C252.012 82.5398 251.911 83.0654 251.674 83.5337C250.603 86.1803 249.113 88.6366 247.259 90.8074C253.739 89.3361 259.956 86.8832 265.696 83.5337C266.307 86.7068 266.196 89.9766 265.371 93.1009C264.546 96.2252 263.029 99.1238 260.931 101.582L271.88 96.0972C272.695 100.716 271.722 105.472 269.157 109.398C266.592 113.325 262.629 116.128 258.072 117.237" fill="white"/>
<path d="M205.64 139.369C205.412 139.374 205.19 139.299 205.012 139.156C204.835 139.014 204.713 138.814 204.667 138.591C204.259 136.763 203.811 134.935 203.364 133.088C201.969 127.907 200.967 122.628 200.369 117.296C199.844 111.345 200.213 102.826 204.959 95.9027C208.848 90.2627 213.749 89.796 218.981 89.3292L222.345 88.9792C228.67 87.8357 234.804 85.813 240.568 82.9697C242.766 82.0168 245.022 81.0249 247.278 80.1692C247.978 79.8662 248.732 79.71 249.495 79.71C250.258 79.71 251.012 79.8662 251.712 80.1692C252.039 80.3418 252.322 80.588 252.538 80.8883C252.754 81.1886 252.897 81.535 252.957 81.9001C253.048 82.6068 252.926 83.3246 252.607 83.9616C251.864 85.8011 250.925 87.5551 249.806 89.1931C255.195 87.6993 260.367 85.5091 265.19 82.678C265.33 82.6014 265.487 82.5612 265.647 82.5612C265.806 82.5612 265.964 82.6014 266.104 82.678C266.248 82.7452 266.374 82.8454 266.472 82.9704C266.57 83.0954 266.637 83.2417 266.668 83.3976C267.705 88.7283 266.779 94.2543 264.062 98.9561L271.413 95.2804C271.553 95.2132 271.706 95.1783 271.86 95.1783C272.015 95.1783 272.168 95.2132 272.308 95.2804C272.447 95.3468 272.568 95.4447 272.663 95.5662C272.757 95.6877 272.822 95.8295 272.852 95.9805C273.724 100.86 272.7 105.888 269.989 110.038C267.278 114.187 263.085 117.145 258.266 118.307C258.137 118.335 258.004 118.338 257.874 118.314C257.744 118.29 257.62 118.24 257.509 118.168C257.399 118.095 257.304 118.001 257.23 117.892C257.156 117.782 257.105 117.659 257.08 117.529C257.034 117.267 257.091 116.996 257.239 116.775C257.388 116.554 257.617 116.399 257.877 116.343C262.199 115.359 265.955 112.701 268.321 108.952C270.53 105.602 271.487 101.581 271.024 97.5947L261.3 102.476C261.093 102.571 260.86 102.592 260.639 102.538C260.417 102.483 260.221 102.355 260.082 102.175C259.942 101.995 259.867 101.773 259.87 101.546C259.872 101.318 259.951 101.098 260.094 100.92C261.934 98.7585 263.307 96.2398 264.127 93.5222C264.947 90.8047 265.196 87.947 264.859 85.1285C259.37 88.1663 253.477 90.4059 247.356 91.7797C247.15 91.824 246.936 91.8031 246.743 91.72C246.55 91.6369 246.387 91.4956 246.278 91.3159C246.169 91.1362 246.119 90.927 246.134 90.7173C246.15 90.5077 246.23 90.308 246.364 90.1461C248.16 88.0667 249.605 85.7085 250.643 83.1642C250.787 82.8605 250.86 82.5279 250.856 82.1918C250.85 82.1211 250.824 82.0535 250.784 81.9955C250.743 81.9376 250.687 81.8913 250.623 81.8612C249.724 81.5888 248.757 81.651 247.9 82.0362C245.683 82.8919 243.427 83.981 241.268 84.8173C235.322 87.7294 228.999 89.7978 222.482 90.9629C221.295 91.1185 220.148 91.2157 219.039 91.3324C213.905 91.7992 209.84 92.1687 206.495 97.0502C202.1 103.468 201.75 111.5 202.236 117.121C202.837 122.373 203.825 127.573 205.192 132.679C205.64 134.624 206.087 136.374 206.515 138.222C206.567 138.482 206.514 138.752 206.369 138.974C206.223 139.196 205.996 139.352 205.737 139.408L205.64 139.369Z" fill="#3E4C62"/>
<path d="M253.521 168.444L255.835 183.536C255.835 183.536 253.462 205.493 236.873 201.642C220.284 197.792 213.672 182.836 213.672 182.836L211.552 142.967C211.552 142.967 223.785 136.297 219.914 109.672C233.511 115.372 248.392 117.3 262.992 115.254C262.992 115.254 268.827 142.676 267.037 155.511C266.738 158.941 265.202 162.144 262.715 164.524C260.228 166.903 256.96 168.297 253.521 168.444V168.444Z" fill="white"/>
<path d="M240.549 203.159C239.239 203.145 237.935 202.989 236.659 202.692C231.502 201.387 226.692 198.97 222.567 195.61C218.441 192.251 215.1 188.03 212.777 183.244C212.75 183.129 212.75 183.009 212.777 182.894L210.502 143.162C210.488 142.972 210.531 142.782 210.624 142.616C210.717 142.45 210.857 142.315 211.027 142.228C211.143 142.228 222.56 135.46 218.806 109.964C218.786 109.783 218.813 109.6 218.884 109.433C218.956 109.266 219.07 109.121 219.214 109.011C219.359 108.897 219.533 108.827 219.715 108.81C219.898 108.793 220.082 108.829 220.245 108.913C233.677 114.486 248.352 116.379 262.759 114.398C263.01 114.368 263.263 114.434 263.468 114.581C263.673 114.729 263.816 114.948 263.867 115.195C264.101 116.304 269.799 142.928 267.913 155.803C267.583 159.26 266.076 162.498 263.644 164.976C261.211 167.455 258.002 169.022 254.552 169.417L256.71 183.439C256.72 183.529 256.72 183.62 256.71 183.711C256.71 184.178 255.33 195.652 248.114 200.767C245.907 202.341 243.26 203.178 240.549 203.159ZM214.625 182.641C215.383 184.236 222.073 197.247 237.048 200.728C238.729 201.213 240.497 201.322 242.225 201.046C243.952 200.771 245.598 200.118 247.045 199.133C253.151 194.816 254.63 184.839 254.824 183.575L252.529 168.619C252.507 168.477 252.516 168.332 252.556 168.194C252.597 168.056 252.667 167.929 252.762 167.822C252.849 167.709 252.961 167.618 253.09 167.557C253.218 167.497 253.359 167.467 253.502 167.472C256.707 167.339 259.753 166.037 262.064 163.812C264.375 161.587 265.792 158.593 266.046 155.394C267.679 144.173 263.206 121.224 262.156 116.498C248.262 118.182 234.167 116.439 221.101 111.422C223.882 134.118 214.916 141.956 212.544 143.609L214.625 182.641Z" fill="#3E4C62"/>
<path d="M244.944 131.376C244.944 131.376 252.723 145.826 250.448 148.004C248.173 150.183 242.124 148.004 242.124 148.004" fill="white"/>
<path d="M247.142 149.949C245.34 149.909 243.555 149.588 241.852 148.996C241.721 148.963 241.599 148.903 241.493 148.819C241.387 148.736 241.3 148.632 241.236 148.513C241.172 148.394 241.134 148.263 241.124 148.129C241.114 147.995 241.131 147.86 241.176 147.732C241.221 147.605 241.291 147.489 241.383 147.39C241.475 147.292 241.587 147.214 241.711 147.16C241.835 147.107 241.968 147.081 242.103 147.082C242.238 147.083 242.371 147.113 242.494 147.168C243.894 147.674 248.328 148.763 249.826 147.324C250.779 146.449 248.056 139.097 244.128 131.882C244.066 131.77 244.027 131.646 244.013 131.519C244 131.392 244.011 131.263 244.047 131.14C244.083 131.017 244.143 130.903 244.224 130.803C244.304 130.703 244.404 130.621 244.516 130.56C244.629 130.498 244.752 130.459 244.879 130.445C245.007 130.432 245.136 130.443 245.259 130.479C245.381 130.515 245.496 130.575 245.596 130.656C245.695 130.737 245.778 130.836 245.839 130.949C248.328 135.499 253.793 146.332 251.129 148.763C249.991 149.635 248.572 150.057 247.142 149.949V149.949Z" fill="#3E4C62"/>
<path d="M230.946 132.53C231.847 132.492 232.508 130.791 232.421 128.731C232.334 126.67 231.533 125.031 230.632 125.069C229.73 125.106 229.07 126.808 229.157 128.868C229.243 130.928 230.044 132.568 230.946 132.53Z" fill="#3E4C62"/>
<path d="M256.983 132.524C257.885 132.486 258.545 130.785 258.459 128.724C258.372 126.664 257.571 125.024 256.669 125.062C255.768 125.1 255.107 126.801 255.194 128.862C255.281 130.922 256.082 132.562 256.983 132.524Z" fill="#3E4C62"/>
<path d="M222.151 136.161C220.67 133.661 218.73 131.464 216.433 129.684C215.252 128.618 213.773 127.939 212.194 127.74C210.897 127.753 209.63 128.13 208.537 128.829C206.903 129.785 205.49 131.077 204.39 132.619C203.291 134.161 202.53 135.918 202.158 137.775C201.795 139.495 201.861 141.279 202.353 142.967C203.293 145.585 205.125 147.788 207.526 149.191C209.907 150.567 212.439 151.663 215.072 152.458" fill="white"/>
<path d="M215.072 153.527H214.741C212.024 152.71 209.413 151.574 206.962 150.143C204.363 148.624 202.385 146.233 201.381 143.395C200.833 141.544 200.752 139.586 201.147 137.697C201.546 135.683 202.365 133.775 203.551 132.1C204.738 130.424 206.265 129.018 208.032 127.973C209.28 127.174 210.731 126.749 212.213 126.747C213.995 126.936 215.677 127.661 217.036 128.828C219.427 130.691 221.446 132.987 222.987 135.596C223.123 135.826 223.162 136.1 223.097 136.359C223.031 136.617 222.866 136.84 222.637 136.977C222.405 137.111 222.129 137.147 221.87 137.078C221.612 137.009 221.391 136.84 221.257 136.608C219.857 134.215 218.008 132.115 215.811 130.423C214.778 129.519 213.498 128.943 212.135 128.77C211.031 128.785 209.954 129.109 209.024 129.703C207.528 130.602 206.236 131.803 205.231 133.229C204.226 134.656 203.531 136.277 203.189 137.988C202.873 139.549 202.933 141.162 203.364 142.695C204.233 145.08 205.913 147.083 208.11 148.354C210.428 149.694 212.895 150.758 215.461 151.524C215.585 151.566 215.7 151.632 215.799 151.718C215.897 151.804 215.978 151.909 216.036 152.027C216.094 152.144 216.128 152.272 216.136 152.403C216.144 152.533 216.126 152.665 216.083 152.788C216.029 153.011 215.898 153.207 215.713 153.342C215.528 153.478 215.301 153.543 215.072 153.527V153.527Z" fill="#3E4C62"/>
<path d="M253.521 168.444C243.986 169.916 234.23 168.308 225.671 163.854C225.671 163.854 239.868 185.675 255.699 182.602L253.521 168.444Z" fill="#3E4C62"/>
<path d="M252.51 184.003C237.651 184.003 225.282 165.371 224.796 164.555C224.682 164.373 224.629 164.159 224.647 163.945C224.664 163.731 224.751 163.529 224.893 163.368C225.035 163.206 225.227 163.096 225.439 163.058C225.651 163.019 225.87 163.053 226.06 163.154C234.436 167.484 243.965 169.056 253.288 167.647C253.551 167.6 253.822 167.656 254.046 167.802C254.155 167.88 254.247 167.978 254.318 168.091C254.388 168.205 254.434 168.332 254.454 168.464L256.633 182.603C256.678 182.85 256.624 183.105 256.482 183.313C256.34 183.521 256.121 183.664 255.874 183.711C254.764 183.915 253.638 184.012 252.51 184.003V184.003ZM228.608 166.499C232.984 172.081 243.408 183.458 254.532 182.058L252.587 169.825C244.429 170.824 236.151 169.629 228.608 166.363V166.499Z" fill="#3E4C62"/>
<path d="M232.4 141.937C229.792 141.937 227.243 141.163 225.075 139.714C222.906 138.266 221.216 136.206 220.218 133.797C219.22 131.387 218.959 128.736 219.468 126.178C219.977 123.621 221.232 121.271 223.076 119.427C224.92 117.583 227.27 116.327 229.828 115.818C232.386 115.31 235.037 115.571 237.446 116.569C239.856 117.567 241.915 119.257 243.364 121.425C244.813 123.594 245.586 126.143 245.586 128.751C245.581 132.246 244.19 135.597 241.718 138.069C239.247 140.541 235.896 141.931 232.4 141.937V141.937ZM232.4 117.568C230.188 117.568 228.026 118.224 226.187 119.453C224.348 120.681 222.915 122.428 222.069 124.471C221.222 126.515 221.001 128.763 221.432 130.932C221.864 133.102 222.929 135.094 224.493 136.658C226.057 138.222 228.049 139.287 230.219 139.719C232.388 140.15 234.636 139.929 236.68 139.082C238.723 138.236 240.469 136.803 241.698 134.964C242.927 133.125 243.583 130.962 243.583 128.751C243.578 125.787 242.398 122.945 240.302 120.849C238.206 118.753 235.364 117.573 232.4 117.568V117.568Z" fill="#3E4C62"/>
<path d="M258.694 141.937C256.086 141.937 253.537 141.163 251.368 139.714C249.2 138.266 247.51 136.206 246.512 133.797C245.514 131.387 245.253 128.736 245.762 126.178C246.27 123.621 247.526 121.271 249.37 119.427C251.214 117.583 253.564 116.327 256.122 115.818C258.68 115.31 261.331 115.571 263.74 116.569C266.15 117.567 268.209 119.257 269.658 121.425C271.107 123.594 271.88 126.143 271.88 128.751C271.875 132.246 270.484 135.597 268.012 138.069C265.541 140.541 262.19 141.931 258.694 141.937V141.937ZM258.694 117.568C256.482 117.568 254.32 118.224 252.481 119.453C250.642 120.681 249.209 122.428 248.363 124.471C247.516 126.515 247.295 128.763 247.726 130.932C248.158 133.102 249.223 135.094 250.787 136.658C252.351 138.222 254.343 139.287 256.513 139.719C258.682 140.15 260.93 139.929 262.974 139.082C265.017 138.236 266.763 136.803 267.992 134.964C269.221 133.125 269.877 130.962 269.877 128.751C269.872 125.787 268.692 122.945 266.596 120.849C264.5 118.753 261.658 117.573 258.694 117.568V117.568Z" fill="#3E4C62"/>
<path d="M245.022 158.001C238.876 158.001 232.945 154.267 227.363 147.012C227.266 146.914 227.192 146.796 227.144 146.666C227.097 146.537 227.077 146.398 227.087 146.261C227.097 146.123 227.137 145.989 227.202 145.868C227.268 145.746 227.359 145.64 227.469 145.557C227.579 145.473 227.705 145.414 227.84 145.383C227.975 145.353 228.114 145.351 228.249 145.378C228.385 145.405 228.513 145.461 228.625 145.542C228.737 145.622 228.831 145.726 228.899 145.845C234.092 152.575 239.518 156.017 245.022 156.056C252.626 156.056 257.897 149.482 257.955 149.424C258.118 149.238 258.346 149.121 258.592 149.097C258.839 149.073 259.085 149.144 259.281 149.295C259.477 149.446 259.608 149.666 259.647 149.911C259.686 150.155 259.63 150.405 259.491 150.61C259.219 150.941 253.521 158.001 245.022 158.001Z" fill="#3E4C62"/>
<path d="M177.284 191.277C170.38 197.908 119.251 249.621 115.42 240.091C111.588 230.562 108.866 186.823 108.866 186.823L73.859 192.016C73.859 192.016 53.6718 290.501 88.7757 301.353C123.88 312.205 177.284 260.512 177.284 260.512V191.277Z" fill="#30B4AD"/>
<path d="M357.298 70.4806L347.203 105.561L424.092 127.687L434.187 92.607L357.298 70.4806Z" fill="#3E4C62"/>
<path d="M424.821 128.361C424.766 128.45 424.693 128.527 424.608 128.588C424.386 128.707 424.128 128.741 423.882 128.682L346.999 106.443C346.875 106.411 346.76 106.354 346.659 106.276C346.558 106.199 346.474 106.102 346.411 105.991C346.348 105.88 346.308 105.758 346.293 105.632C346.279 105.505 346.289 105.377 346.325 105.255L356.407 70.2613C356.479 70.0147 356.646 69.8068 356.872 69.6831C357.097 69.5593 357.362 69.5298 357.609 69.6008L434.516 91.7292C434.756 91.8197 434.95 92.0009 435.057 92.2335C435.178 92.4605 435.207 92.726 435.137 92.9738L424.97 127.915C424.961 128.075 424.909 128.228 424.821 128.361V128.361ZM348.404 104.908L423.436 126.51L433.001 93.2948L357.97 71.6937L348.404 104.908Z" fill="#3E4C62"/>
<path d="M148.501 318.837C148.329 318.838 148.161 318.791 148.015 318.701C147.904 318.638 147.806 318.554 147.728 318.453C147.65 318.352 147.593 318.237 147.56 318.114C147.527 317.99 147.52 317.862 147.538 317.735C147.556 317.609 147.599 317.488 147.665 317.378C147.879 316.989 170.283 277.004 177.556 213.486C177.595 213.232 177.729 213.002 177.932 212.843C178.134 212.684 178.389 212.608 178.646 212.631C178.9 212.66 179.133 212.789 179.294 212.989C179.454 213.19 179.529 213.445 179.501 213.7C172.169 277.646 149.571 317.942 149.337 318.351C149.252 318.498 149.131 318.62 148.984 318.705C148.837 318.79 148.671 318.836 148.501 318.837Z" fill="#3E4C62"/>
<path d="M352.901 241.083C326.743 241.083 278.084 230.134 277.598 230.017C277.472 229.989 277.354 229.937 277.248 229.864C277.143 229.79 277.054 229.696 276.985 229.588C276.916 229.479 276.87 229.358 276.848 229.231C276.826 229.105 276.83 228.975 276.859 228.85C276.883 228.724 276.934 228.604 277.007 228.498C277.081 228.392 277.175 228.303 277.285 228.235C277.394 228.168 277.517 228.123 277.644 228.105C277.772 228.087 277.902 228.096 278.026 228.131C278.512 228.228 326.957 239.138 352.881 239.138H354.826C355.083 239.138 355.329 239.237 355.514 239.415C355.699 239.592 355.808 239.835 355.818 240.091C355.821 240.219 355.798 240.346 355.752 240.465C355.705 240.584 355.636 240.692 355.547 240.784C355.459 240.877 355.353 240.95 355.236 241.002C355.119 241.053 354.993 241.08 354.865 241.083H352.901Z" fill="#3E4C62"/>
<path d="M88.3868 140.925C88.3868 140.925 94.5324 147.479 91.518 158.973C88.5035 170.467 83.4275 172.587 74.812 167.472" fill="white"/>
<path d="M82.3774 171.128C79.4787 170.935 76.6848 169.968 74.287 168.328C74.1746 168.26 74.0767 168.171 73.9988 168.065C73.9209 167.96 73.8645 167.84 73.8329 167.713C73.8013 167.585 73.7951 167.453 73.8146 167.323C73.8341 167.194 73.879 167.069 73.9467 166.957C74.0144 166.844 74.1035 166.746 74.209 166.668C74.3146 166.591 74.4344 166.534 74.5617 166.503C74.6891 166.471 74.8214 166.465 74.9511 166.484C75.0808 166.504 75.2054 166.549 75.3178 166.616C79.2074 168.97 82.2024 169.65 84.4584 168.736C87.0644 167.686 89.0482 164.419 90.5262 158.72C93.3462 147.946 87.8618 141.878 87.6284 141.625C87.442 141.436 87.3374 141.181 87.3374 140.916C87.3374 140.65 87.442 140.395 87.6284 140.206C87.7191 140.112 87.8279 140.037 87.9482 139.986C88.0685 139.935 88.1979 139.908 88.3286 139.908C88.4593 139.908 88.5887 139.935 88.7089 139.986C88.8292 140.037 88.938 140.112 89.0287 140.206C89.301 140.498 95.5244 147.304 92.4127 159.187C90.7207 165.624 88.5231 169.242 85.1585 170.564C84.2751 170.925 83.3316 171.116 82.3774 171.128V171.128Z" fill="#3E4C62"/>
<path d="M377.075 122.294C377.075 122.294 365.853 103.41 368.596 101.485C371.338 99.5592 377.717 106.911 381.237 111.889C381.237 111.889 392.031 113.834 390.222 125.853" fill="white"/>
<path d="M390.222 126.864H390.066C389.804 126.821 389.569 126.676 389.413 126.462C389.256 126.247 389.191 125.979 389.23 125.717C390.883 114.787 381.451 112.959 381.062 112.9C380.804 112.851 380.574 112.705 380.42 112.492C375.791 105.938 370.696 101.29 369.179 102.32C368.459 103.623 372.466 112.57 377.95 121.769C378.08 121.997 378.116 122.266 378.05 122.52C377.985 122.774 377.824 122.993 377.6 123.13C377.487 123.2 377.361 123.246 377.23 123.266C377.098 123.286 376.964 123.28 376.836 123.247C376.707 123.215 376.586 123.156 376.48 123.076C376.374 122.996 376.285 122.895 376.219 122.78C370.89 113.795 365.134 102.671 368.032 100.648C371.921 97.8863 379.331 107.455 381.84 110.975C383.921 111.519 392.945 114.553 391.214 125.989C391.181 126.23 391.063 126.45 390.881 126.611C390.699 126.772 390.465 126.862 390.222 126.864V126.864Z" fill="#3E4C62"/>
<path d="M33.018 410.924C32.82 410.922 32.6274 410.859 32.4658 410.745C32.3042 410.63 32.1814 410.47 32.1137 410.283C32.0461 410.097 32.0368 409.895 32.0872 409.704C32.1376 409.512 32.2452 409.341 32.3957 409.212L127.692 329.611C127.89 329.446 128.146 329.366 128.403 329.39C128.531 329.402 128.654 329.439 128.767 329.498C128.881 329.558 128.981 329.639 129.063 329.737C129.144 329.836 129.206 329.949 129.244 330.071C129.282 330.193 129.295 330.322 129.283 330.449C129.272 330.576 129.235 330.7 129.175 330.813C129.116 330.926 129.035 331.027 128.936 331.108L33.6403 410.71C33.4641 410.851 33.244 410.927 33.018 410.924V410.924Z" fill="#E6E7E8"/>
<path d="M471.437 377.239C471.227 377.241 471.022 377.172 470.854 377.045L324.837 266.385C324.718 266.316 324.614 266.222 324.534 266.11C324.453 265.998 324.397 265.87 324.37 265.735C324.343 265.6 324.344 265.46 324.375 265.326C324.406 265.191 324.465 265.065 324.549 264.955C324.632 264.845 324.738 264.754 324.86 264.688C324.981 264.622 325.115 264.583 325.253 264.573C325.39 264.563 325.528 264.582 325.658 264.63C325.788 264.677 325.906 264.752 326.004 264.849L472.021 375.489C472.227 375.644 472.364 375.874 472.4 376.13C472.436 376.385 472.37 376.644 472.215 376.85C472.124 376.97 472.006 377.067 471.871 377.135C471.736 377.202 471.588 377.238 471.437 377.239Z" fill="#E6E7E8"/>
<path d="M163.573 132.348C163.437 132.347 163.302 132.317 163.178 132.26C163.054 132.203 162.944 132.12 162.854 132.018L91.6152 52.3777C91.4358 52.1926 91.3354 51.945 91.3354 51.6873C91.3354 51.4295 91.4358 51.1819 91.6152 50.9969C91.7056 50.9057 91.8131 50.8334 91.9316 50.784C92.0501 50.7347 92.1772 50.7092 92.3056 50.7092C92.434 50.7092 92.5611 50.7347 92.6796 50.784C92.7981 50.8334 92.9056 50.9057 92.996 50.9969L164.215 130.637C164.306 130.727 164.379 130.835 164.428 130.953C164.477 131.072 164.503 131.199 164.503 131.327C164.503 131.456 164.477 131.583 164.428 131.701C164.379 131.82 164.306 131.927 164.215 132.018C164.05 132.205 163.821 132.323 163.573 132.348Z" fill="#E6E7E8"/>
<path d="M406.831 192.541C406.573 192.587 406.307 192.529 406.092 192.38C405.876 192.23 405.73 192.001 405.683 191.743C405.637 191.485 405.695 191.22 405.844 191.005C405.994 190.789 406.223 190.642 406.48 190.596L481.667 161.268C481.907 161.173 482.175 161.177 482.412 161.279C482.649 161.381 482.836 161.573 482.931 161.813C483.027 162.053 483.023 162.32 482.921 162.558C482.819 162.795 482.626 162.981 482.387 163.077L407.161 192.463C407.058 192.514 406.945 192.54 406.831 192.541V192.541Z" fill="#E6E7E8"/>
<path d="M289.539 125.542C289.399 125.578 289.251 125.578 289.111 125.542C288.996 125.486 288.893 125.407 288.808 125.312C288.723 125.216 288.658 125.104 288.617 124.983C288.575 124.862 288.558 124.734 288.566 124.606C288.574 124.478 288.607 124.354 288.664 124.239L315.483 70.0172C315.596 69.7851 315.797 69.6076 316.042 69.5237C316.286 69.4398 316.554 69.4565 316.786 69.5699C317.018 69.6834 317.195 69.8844 317.279 70.1288C317.363 70.3732 317.347 70.6409 317.233 70.873L290.472 125.017C290.383 125.184 290.248 125.323 290.083 125.416C289.917 125.509 289.728 125.553 289.539 125.542Z" fill="#E6E7E8"/>
<path d="M471.437 257.225H471.34L383.551 245.79C383.423 245.774 383.3 245.734 383.188 245.671C383.076 245.608 382.977 245.523 382.898 245.422C382.818 245.321 382.759 245.205 382.725 245.082C382.69 244.958 382.68 244.828 382.695 244.701C382.711 244.573 382.751 244.449 382.814 244.337C382.877 244.225 382.962 244.127 383.063 244.047C383.164 243.968 383.28 243.909 383.404 243.874C383.527 243.84 383.657 243.83 383.785 243.845L471.593 255.28C471.848 255.314 472.079 255.448 472.236 255.652C472.393 255.856 472.462 256.114 472.429 256.369C472.396 256.608 472.277 256.827 472.095 256.984C471.912 257.142 471.678 257.227 471.437 257.225V257.225Z" fill="#E6E7E8"/>
<path d="M308.579 158.001C308.432 158.003 308.287 157.971 308.155 157.906C308.023 157.842 307.909 157.748 307.82 157.631C307.738 157.534 307.676 157.421 307.638 157.299C307.6 157.177 307.587 157.049 307.6 156.922C307.613 156.795 307.651 156.671 307.712 156.559C307.773 156.448 307.856 156.349 307.956 156.27L321.045 145.67C321.246 145.511 321.503 145.439 321.758 145.468C322.013 145.497 322.246 145.626 322.406 145.826C322.567 146.025 322.644 146.28 322.618 146.535C322.593 146.79 322.467 147.024 322.27 147.187L309.181 157.787C309.01 157.923 308.798 157.998 308.579 158.001Z" fill="#E6E7E8"/>
<path d="M392.556 410.924C392.387 410.927 392.221 410.885 392.075 410.803C391.928 410.721 391.805 410.602 391.719 410.457L341.368 325.274C341.241 325.052 341.206 324.789 341.271 324.541C341.337 324.294 341.497 324.082 341.718 323.952C341.941 323.822 342.206 323.783 342.456 323.845C342.707 323.907 342.923 324.064 343.06 324.282L393.392 409.465C393.458 409.575 393.501 409.696 393.519 409.822C393.537 409.949 393.529 410.077 393.497 410.201C393.464 410.324 393.407 410.439 393.329 410.54C393.251 410.641 393.153 410.725 393.042 410.788C392.897 410.88 392.728 410.927 392.556 410.924V410.924Z" fill="#E6E7E8"/>
<path d="M116.237 415.766C116.08 415.767 115.926 415.727 115.789 415.65C115.564 415.53 115.394 415.326 115.318 415.082C115.242 414.838 115.264 414.574 115.381 414.347L135.821 375.801C135.882 375.688 135.965 375.589 136.064 375.508C136.164 375.427 136.278 375.367 136.401 375.331C136.524 375.295 136.653 375.284 136.78 375.297C136.908 375.311 137.031 375.35 137.143 375.412C137.255 375.471 137.354 375.552 137.435 375.649C137.515 375.747 137.575 375.86 137.611 375.982C137.647 376.103 137.659 376.23 137.646 376.356C137.632 376.482 137.594 376.604 137.532 376.715L117.112 415.261C117.023 415.414 116.896 415.542 116.742 415.631C116.588 415.72 116.414 415.766 116.237 415.766V415.766Z" fill="#E6E7E8"/>
<path d="M1.66756 294.391C1.45117 294.392 1.24085 294.319 1.07118 294.185C0.901521 294.051 0.782615 293.863 0.73404 293.652C0.675555 293.402 0.718412 293.138 0.853232 292.92C0.988052 292.701 1.20389 292.545 1.45363 292.485L64.135 278.229C64.3929 278.173 64.6627 278.221 64.8852 278.363C65.1077 278.505 65.2646 278.73 65.3213 278.988C65.378 279.246 65.33 279.516 65.1878 279.738C65.0455 279.961 64.8207 280.117 64.5628 280.174L1.88149 294.41L1.66756 294.391Z" fill="#E6E7E8"/>
<path d="M201.186 64.9612C200.975 64.9644 200.769 64.8974 200.6 64.7707C200.431 64.6439 200.309 64.4647 200.253 64.261L185.453 12.5679C185.386 12.3178 185.421 12.0518 185.548 11.8266C185.675 11.6013 185.885 11.4346 186.133 11.3621C186.255 11.3266 186.382 11.3156 186.507 11.3297C186.633 11.3438 186.754 11.3828 186.865 11.4443C186.975 11.5058 187.072 11.5887 187.15 11.6881C187.228 11.7875 187.286 11.9015 187.32 12.0233L202.178 63.7359C202.213 63.8572 202.224 63.9844 202.21 64.11C202.196 64.2356 202.157 64.3571 202.096 64.4675C202.034 64.578 201.951 64.675 201.852 64.7531C201.753 64.8311 201.639 64.8886 201.517 64.9222C201.412 64.9632 201.298 64.9766 201.186 64.9612V64.9612Z" fill="#E6E7E8"/>
<path d="M267.349 48.3133H267.135C267.009 48.2857 266.891 48.2335 266.785 48.1598C266.68 48.0861 266.591 47.9923 266.522 47.8838C266.453 47.7753 266.407 47.6543 266.385 47.5277C266.363 47.4012 266.367 47.2715 266.396 47.1464L276.859 1.19043C276.915 0.932527 277.072 0.707731 277.295 0.565489C277.517 0.423247 277.787 0.375212 278.045 0.431949C278.303 0.488687 278.528 0.64555 278.67 0.868031C278.812 1.09051 278.86 1.36039 278.804 1.61829L268.302 47.5548C268.25 47.7692 268.128 47.9601 267.955 48.0975C267.783 48.2349 267.569 48.3108 267.349 48.3133V48.3133Z" fill="#E6E7E8"/>
<path d="M58.9228 198.725H20.2405C19.9826 198.725 19.7352 198.623 19.5529 198.44C19.3705 198.258 19.2681 198.011 19.2681 197.753C19.2681 197.495 19.3705 197.247 19.5529 197.065C19.7352 196.883 19.9826 196.78 20.2405 196.78H58.9228C59.1807 196.78 59.428 196.883 59.6104 197.065C59.7928 197.247 59.8952 197.495 59.8952 197.753C59.8952 198.011 59.7928 198.258 59.6104 198.44C59.428 198.623 59.1807 198.725 58.9228 198.725Z" fill="#E6E7E8"/>
<path d="M365.755 344.286C365.755 344.286 331.854 331.03 320.365 340.145C308.875 349.259 274.405 447.796 280.78 464.299C287.154 480.803 334.676 472.49 334.676 472.49C334.676 472.49 468.128 480.428 481.689 475.332C501.857 467.74 457.075 348.833 450.396 342.52C443.718 336.206 412.841 347.097 412.841 347.097" fill="#FCC85C"/>
<path d="M337.802 445.258C337.7 445.257 337.601 445.225 337.518 445.167C321.623 434.316 301.222 437.097 300.978 437.128C300.845 437.145 300.71 437.109 300.604 437.027C300.497 436.945 300.427 436.825 300.41 436.691C300.392 436.56 300.427 436.426 300.507 436.32C300.586 436.214 300.705 436.143 300.836 436.123C301.049 436.123 321.826 433.251 338.046 444.324C338.102 444.362 338.149 444.41 338.186 444.466C338.223 444.523 338.248 444.586 338.26 444.652C338.273 444.718 338.272 444.786 338.258 444.852C338.243 444.917 338.216 444.98 338.178 445.035C338.136 445.098 338.081 445.151 338.016 445.19C337.951 445.228 337.878 445.252 337.802 445.258V445.258Z" fill="#3E4C62"/>
<path d="M436.186 445.258C436.075 445.262 435.966 445.23 435.875 445.166C435.784 445.102 435.716 445.01 435.683 444.904C435.649 444.797 435.652 444.683 435.689 444.579C435.727 444.474 435.798 444.385 435.892 444.324C452.132 433.251 472.899 436.093 473.112 436.123C473.243 436.143 473.361 436.214 473.441 436.32C473.521 436.427 473.556 436.56 473.538 436.691C473.518 436.825 473.446 436.946 473.338 437.028C473.23 437.109 473.094 437.145 472.96 437.128C472.757 437.128 452.355 434.316 436.47 445.167C436.387 445.224 436.288 445.256 436.186 445.258V445.258Z" fill="#3E4C62"/>
<path d="M327.5 430.601C327.433 430.597 327.368 430.58 327.308 430.551C327.248 430.522 327.194 430.481 327.15 430.431C327.105 430.381 327.071 430.323 327.05 430.26C327.028 430.197 327.019 430.13 327.023 430.063L330.586 369.651C330.589 369.584 330.606 369.519 330.636 369.459C330.665 369.398 330.706 369.345 330.756 369.3C330.805 369.256 330.864 369.222 330.927 369.2C330.99 369.179 331.057 369.169 331.124 369.174C331.191 369.176 331.257 369.192 331.317 369.221C331.378 369.25 331.432 369.29 331.477 369.341C331.522 369.391 331.556 369.45 331.577 369.513C331.598 369.577 331.606 369.645 331.601 369.712L328.038 430.124C328.028 430.258 327.966 430.383 327.865 430.471C327.765 430.56 327.634 430.607 327.5 430.601V430.601Z" fill="#3E4C62"/>
<path d="M436.186 430.601C436.052 430.601 435.923 430.548 435.827 430.453C435.732 430.358 435.679 430.229 435.679 430.094V372.239C435.679 372.104 435.732 371.975 435.827 371.88C435.923 371.785 436.052 371.731 436.186 371.731C436.321 371.731 436.45 371.785 436.545 371.88C436.64 371.975 436.694 372.104 436.694 372.239V430.094C436.694 430.229 436.64 430.358 436.545 430.453C436.45 430.548 436.321 430.601 436.186 430.601Z" fill="#3E4C62"/>
<path d="M354.022 340.459C354.022 340.459 365.654 401.268 387.517 430.094C387.517 430.094 417.135 377.03 422.9 343.971C422.9 343.971 400.428 348.285 392.115 348.366C383.802 348.447 354.022 340.459 354.022 340.459Z" fill="#3E4C62"/>
<path d="M387.466 430.601C387.387 430.603 387.309 430.585 387.238 430.55C387.167 430.515 387.106 430.463 387.06 430.398C365.4 401.806 353.616 341.17 353.494 340.561C353.479 340.476 353.485 340.39 353.511 340.308C353.538 340.227 353.584 340.153 353.646 340.094C353.709 340.034 353.785 339.991 353.869 339.97C353.953 339.948 354.04 339.949 354.124 339.972C354.418 340.053 383.559 347.859 391.922 347.859H392.054C400.235 347.777 422.504 343.525 422.758 343.474C422.838 343.459 422.921 343.464 422.999 343.489C423.077 343.514 423.147 343.557 423.204 343.616C423.264 343.672 423.308 343.743 423.333 343.821C423.358 343.899 423.362 343.982 423.347 344.063C417.632 376.827 388.197 429.81 387.903 430.338C387.863 430.412 387.805 430.476 387.734 430.522C387.663 430.568 387.581 430.596 387.497 430.601H387.466ZM354.682 341.16C356.133 348.356 367.552 402.313 387.426 429.16C390.867 422.887 416.637 375.213 422.25 344.611C418.272 345.362 399.626 348.792 392.095 348.874H391.963C384.168 348.833 359.523 342.439 354.682 341.16Z" fill="#3E4C62"/>
<path d="M380.524 362.952L385.223 371.102L373.388 406.14L387.497 430.094L400.367 405.024L391.049 371.254L395.952 362.952L388.177 355.238L380.524 362.952Z" fill="#D1D3D4"/>
<path d="M387.466 430.601C387.376 430.603 387.287 430.58 387.208 430.535C387.13 430.491 387.065 430.426 387.02 430.348L372.921 406.394C372.889 406.329 372.872 406.258 372.872 406.186C372.872 406.113 372.889 406.042 372.921 405.978L384.675 371.163L380.087 363.216C380.032 363.119 380.01 363.007 380.025 362.897C380.04 362.787 380.09 362.685 380.168 362.607L387.811 354.893C387.853 354.837 387.909 354.793 387.973 354.766C388.037 354.739 388.108 354.73 388.177 354.74C388.243 354.74 388.309 354.753 388.37 354.779C388.432 354.805 388.487 354.844 388.532 354.893L396.307 362.607C396.389 362.685 396.442 362.789 396.457 362.902C396.471 363.014 396.447 363.129 396.388 363.226L391.597 371.346L400.864 404.912C400.904 405.03 400.904 405.159 400.864 405.277L387.984 430.348C387.941 430.427 387.879 430.495 387.802 430.543C387.726 430.591 387.638 430.618 387.547 430.622L387.466 430.601ZM373.946 406.079L387.466 429.018L399.829 404.952L390.562 371.366C390.535 371.304 390.521 371.236 390.521 371.168C390.521 371.1 390.535 371.033 390.562 370.97L395.261 363.013L388.156 355.908L381.143 363.013L385.649 370.828C385.677 370.894 385.691 370.965 385.691 371.036C385.691 371.108 385.677 371.178 385.649 371.244L373.946 406.079Z" fill="#3E4C62"/>
<path d="M364.05 338.247L408.629 338.389L407.847 355.41H376.362L361.076 348.092L364.05 338.247Z" fill="#3E4C62"/>
<path d="M407.847 355.938H376.382C376.312 355.952 376.24 355.952 376.169 355.938L360.873 348.62C360.765 348.565 360.679 348.475 360.631 348.363C360.583 348.252 360.575 348.127 360.609 348.011L363.583 338.176C363.612 338.069 363.676 337.976 363.764 337.91C363.853 337.843 363.96 337.808 364.07 337.81V337.81L408.659 337.952C408.798 337.956 408.929 338.015 409.025 338.115C409.07 338.164 409.105 338.221 409.128 338.284C409.151 338.347 409.16 338.413 409.157 338.48L408.375 355.502C408.358 355.627 408.294 355.741 408.196 355.822C408.098 355.903 407.974 355.944 407.847 355.938ZM376.484 354.923H407.36L408.101 338.916L364.456 338.774L361.685 347.818L376.484 354.923Z" fill="#3E4C62"/>
<path d="M420.23 295.038C422.616 289.77 423.275 282.696 424.179 277.052C424.585 274.504 425.894 271.155 425.539 268.587C425.285 266.79 424.057 265.339 423.945 263.309C423.854 261.502 423.864 259.574 422.859 258.072C421.854 256.569 419.368 255.93 418.282 257.371C419.722 252.861 420.575 248.184 420.819 243.456C416.98 245.216 412.739 245.917 408.538 245.486C410.24 244.113 411.678 242.441 412.78 240.553C409.106 243.354 403.96 242.42 399.372 241.832C388.907 240.492 377.854 241.832 368.719 247.14C365.786 248.845 362.832 251.342 362.497 254.732C361.335 254.506 360.135 254.592 359.017 254.98C357.899 255.369 356.904 256.047 356.133 256.945C354.608 258.766 353.584 260.952 353.159 263.289C350.114 276.707 355.189 288.237 356.488 301.473C366.395 302.082 376.393 302.924 386.39 302.772C394.338 302.61 415.988 304.356 420.23 295.038Z" fill="white"/>
<path d="M394.571 303.3C393.049 303.3 391.607 303.3 390.278 303.3C388.796 303.3 387.487 303.3 386.431 303.3C378.311 303.432 370.1 302.884 362.162 302.366L356.488 302.001C356.367 301.994 356.253 301.945 356.165 301.861C356.078 301.777 356.023 301.665 356.011 301.544C355.585 297.271 354.753 293.13 353.981 289.121C352.246 280.503 350.612 272.363 352.723 263.197C353.139 260.778 354.19 258.511 355.768 256.63C356.54 255.73 357.518 255.028 358.619 254.585C359.719 254.142 360.91 253.969 362.091 254.083C362.589 251.332 364.74 248.835 368.486 246.663C376.971 241.73 387.974 239.822 399.464 241.284L400.479 241.416C404.802 241.984 409.279 242.583 412.516 240.116C412.606 240.041 412.719 240 412.836 240C412.953 240 413.066 240.041 413.156 240.116C413.245 240.194 413.303 240.301 413.322 240.418C413.34 240.535 413.318 240.654 413.257 240.756C412.323 242.345 411.156 243.785 409.796 245.029C413.514 245.235 417.226 244.538 420.616 242.999C420.696 242.962 420.783 242.946 420.87 242.953C420.958 242.96 421.042 242.99 421.114 243.039C421.187 243.088 421.245 243.155 421.284 243.233C421.323 243.312 421.341 243.399 421.337 243.486C421.114 247.784 420.392 252.042 419.185 256.174C419.496 256.09 419.817 256.053 420.139 256.062C420.762 256.088 421.372 256.257 421.919 256.556C422.466 256.855 422.938 257.277 423.296 257.788C424.127 259.316 424.523 261.043 424.443 262.781V263.279C424.543 264.252 424.814 265.201 425.245 266.08C425.611 266.854 425.874 267.673 426.026 268.516C426.134 270.546 425.872 272.578 425.255 274.515C425.021 275.449 424.798 276.332 424.666 277.133C424.504 278.148 424.341 279.275 424.179 280.392C423.468 285.314 422.656 290.897 420.677 295.241C417.388 302.488 404.417 303.3 394.571 303.3ZM387.375 302.214H390.288C399.362 302.336 416.262 302.559 419.794 294.754C421.712 290.531 422.514 285.03 423.215 280.178C423.377 279.052 423.539 277.956 423.712 276.9C423.844 276.058 424.067 275.154 424.301 274.2C424.866 272.406 425.11 270.527 425.021 268.648C424.882 267.892 424.643 267.159 424.311 266.466C423.83 265.479 423.53 264.413 423.428 263.319V262.822C423.496 261.266 423.145 259.72 422.413 258.346C422.146 257.97 421.797 257.659 421.393 257.438C420.988 257.216 420.539 257.089 420.078 257.067C419.812 257.044 419.544 257.086 419.298 257.191C419.052 257.295 418.836 257.458 418.667 257.666C418.596 257.763 418.493 257.831 418.376 257.859C418.258 257.887 418.135 257.873 418.028 257.818C417.923 257.76 417.84 257.669 417.794 257.558C417.748 257.447 417.741 257.324 417.774 257.209C419.12 253.005 419.949 248.652 420.241 244.247C416.52 245.803 412.468 246.399 408.456 245.983C408.356 245.974 408.262 245.933 408.185 245.868C408.109 245.803 408.055 245.715 408.03 245.618C408 245.522 407.999 245.42 408.028 245.324C408.057 245.228 408.114 245.143 408.193 245.08C409.295 244.189 410.284 243.167 411.136 242.035C407.837 243.425 403.858 242.897 400.286 242.42L399.271 242.299C388.004 240.857 377.235 242.715 368.942 247.536C365.238 249.688 363.228 252.114 362.964 254.743C362.958 254.815 362.935 254.886 362.898 254.949C362.862 255.012 362.811 255.066 362.751 255.108C362.691 255.149 362.622 255.177 362.551 255.189C362.479 255.201 362.405 255.198 362.335 255.179C361.263 254.97 360.156 255.048 359.124 255.404C358.092 255.761 357.172 256.383 356.458 257.209C354.992 258.955 354.008 261.055 353.606 263.299C351.576 272.261 353.159 280.29 354.875 288.796C355.656 292.693 356.458 296.723 356.905 300.895L362.152 301.23C370.079 301.747 378.27 302.245 386.34 302.163L387.375 302.214Z" fill="#3E4C62"/>
<path d="M365.755 350.528C365.755 350.528 374.007 354.75 388.177 355.238C402.346 355.725 404.721 351.878 404.721 351.878L404.376 344.296L403.605 326.676L402.833 310.263L370.495 309.146L368.953 322.443L368.476 326.787L365.755 350.528Z" fill="white"/>
<path d="M390.582 355.786C389.811 355.786 389.009 355.786 388.156 355.786C374.038 355.298 365.613 351.066 365.532 351.025C365.438 350.981 365.361 350.908 365.312 350.816C365.263 350.725 365.244 350.621 365.258 350.518L369.988 309.075C369.993 309.011 370.011 308.949 370.04 308.892C370.07 308.835 370.11 308.784 370.159 308.742C370.208 308.701 370.265 308.669 370.326 308.65C370.387 308.63 370.452 308.623 370.516 308.629L402.854 309.745C402.981 309.75 403.102 309.803 403.193 309.894C403.283 309.984 403.336 310.105 403.341 310.232L405.208 351.847C405.213 351.952 405.185 352.055 405.127 352.142C405.036 352.314 402.691 355.786 390.582 355.786ZM366.304 350.234C367.938 350.975 375.834 354.294 388.197 354.73C400.377 355.146 403.635 352.314 404.183 351.685L402.356 310.679L370.942 309.583L366.304 350.234Z" fill="#3E4C62"/>
<path d="M368.476 326.828C370.78 330.888 374.718 334.065 378.778 336.511C385.599 340.571 395.87 345.301 404.356 344.306L403.584 326.686C397.367 327.245 391.105 327.068 384.929 326.158C379.488 325.498 373.886 324.757 368.953 322.484L368.476 326.828Z" fill="#3E4C62"/>
<path d="M401.94 344.946C393.231 344.946 383.67 340.053 378.514 336.947C373.632 334.004 370.1 330.685 368.029 327.082C367.979 326.988 367.957 326.882 367.968 326.777L368.445 322.433C368.455 322.353 368.483 322.277 368.527 322.21C368.571 322.143 368.63 322.087 368.699 322.047C368.771 322.01 368.851 321.99 368.932 321.99C369.014 321.99 369.094 322.01 369.166 322.047C374.17 324.351 379.915 325.092 384.99 325.681C391.125 326.585 397.347 326.759 403.523 326.198C403.592 326.191 403.662 326.198 403.728 326.219C403.794 326.239 403.855 326.272 403.908 326.317C403.961 326.361 404.005 326.416 404.036 326.478C404.068 326.539 404.087 326.607 404.092 326.676L404.863 344.306C404.869 344.433 404.826 344.558 404.743 344.654C404.66 344.75 404.543 344.811 404.417 344.824C403.594 344.916 402.767 344.956 401.94 344.946ZM368.993 326.676C371.023 330.076 374.363 333.222 379.042 336.034C384.502 339.312 394.916 344.621 403.828 343.809L403.097 327.203C397.005 327.702 390.876 327.508 384.827 326.625C379.904 326.016 374.342 325.336 369.348 323.194L368.993 326.676Z" fill="#3E4C62"/>
<path d="M412.313 273.226C413.917 273.388 413.491 277.884 413.501 280.249V292.247C413.501 296.946 413.663 301.676 413.501 306.365C413.442 308.045 413.214 309.715 412.821 311.349C411.474 316.895 408.257 321.808 403.71 325.258C399.163 328.708 393.566 330.485 387.862 330.289L384.969 330.177C378.402 329.942 372.197 327.109 367.717 322.302C363.237 317.495 360.849 311.106 361.076 304.538C361.168 301.808 361.076 299.047 361.076 296.307C361.076 292.825 359.239 284.33 363.35 282.756C364.71 282.381 366.111 282.173 367.521 282.137C369.529 281.904 371.469 281.266 373.224 280.263C374.978 279.26 376.512 277.912 377.732 276.301L377.073 280.128C384.132 280.763 391.243 279.788 397.87 277.275C401.118 276.037 404.478 274.23 405.807 270.982L405.685 278.087C407.37 277.844 408.538 276.352 409.674 275.042C410.811 273.733 411.735 273.165 412.313 273.226Z" fill="white"/>
<path d="M388.755 330.807H387.882L384.99 330.695C381.668 330.584 378.402 329.818 375.376 328.443C372.351 327.067 369.627 325.109 367.359 322.679C365.092 320.25 363.326 317.397 362.163 314.284C360.999 311.171 360.461 307.859 360.579 304.538C360.64 302.721 360.579 300.864 360.579 299.067C360.579 298.144 360.579 297.23 360.579 296.317C360.579 295.616 360.498 294.703 360.406 293.647C360.051 289.435 359.564 283.68 363.187 282.3C364.217 281.96 365.291 281.772 366.375 281.741L367.471 281.64C369.406 281.407 371.275 280.787 372.966 279.817C374.657 278.848 376.137 277.549 377.316 275.997C377.385 275.908 377.481 275.844 377.59 275.816C377.699 275.788 377.814 275.796 377.917 275.84C378.02 275.884 378.106 275.962 378.161 276.06C378.216 276.158 378.236 276.271 378.22 276.382L377.661 279.671C384.472 280.19 391.314 279.198 397.697 276.768C401.869 275.185 404.305 273.276 405.351 270.759C405.392 270.648 405.473 270.555 405.577 270.499C405.682 270.443 405.803 270.427 405.919 270.455C406.035 270.478 406.14 270.542 406.214 270.635C406.288 270.728 406.327 270.843 406.325 270.962L406.213 277.367C407.319 276.817 408.277 276.01 409.005 275.012L409.299 274.677C410.578 273.236 411.532 272.647 412.344 272.647C414.151 272.84 414.08 276.057 414.009 278.899C414.009 279.366 414.009 279.803 414.009 280.178V292.176C414.009 293.739 414.009 295.302 414.009 296.875C414.009 299.971 414.09 303.168 414.009 306.315C413.792 312.874 411.031 319.091 406.31 323.65C401.588 328.208 395.278 330.75 388.715 330.735L388.755 330.807ZM376.931 278.027C374.434 280.589 371.135 282.219 367.582 282.645L366.456 282.746C365.466 282.764 364.484 282.928 363.543 283.233C360.64 284.34 361.097 289.669 361.421 293.546C361.513 294.632 361.594 295.576 361.594 296.307C361.594 297.22 361.594 298.124 361.594 299.047C361.594 300.854 361.594 302.721 361.594 304.559C361.481 307.746 361.998 310.925 363.115 313.912C364.232 316.9 365.926 319.638 368.102 321.97C370.278 324.302 372.892 326.183 375.795 327.504C378.698 328.825 381.833 329.561 385.02 329.67L387.923 329.781C391.111 329.898 394.292 329.384 397.281 328.269C400.27 327.154 403.01 325.459 405.343 323.283C407.676 321.106 409.556 318.491 410.876 315.586C412.196 312.681 412.929 309.544 413.034 306.355C413.136 303.229 413.095 300.042 413.034 296.956C413.034 295.383 413.034 293.82 413.034 292.247V280.249C413.034 279.864 413.034 279.417 413.034 278.95C413.034 277.286 413.156 273.824 412.283 273.733C412.08 273.733 411.461 273.824 410.08 275.377L409.796 275.753C408.731 276.971 407.533 278.351 405.807 278.595C405.734 278.608 405.659 278.605 405.587 278.585C405.515 278.566 405.448 278.531 405.391 278.483C405.336 278.433 405.292 278.372 405.263 278.304C405.233 278.236 405.218 278.162 405.219 278.087L405.31 273.012C403.889 274.941 401.544 276.494 398.093 277.803C391.393 280.335 384.207 281.32 377.073 280.686C377.003 280.68 376.935 280.659 376.874 280.626C376.812 280.592 376.759 280.547 376.716 280.491C376.673 280.436 376.642 280.372 376.625 280.305C376.607 280.237 376.604 280.166 376.616 280.097L376.931 278.027Z" fill="#3E4C62"/>
<path d="M387.588 289.121C387.588 289.121 395.708 307.096 392.125 307.391C388.542 307.685 383.406 305.056 383.406 305.056" fill="white"/>
<path d="M391.526 307.959C387.903 307.959 383.406 305.614 383.203 305.513C383.144 305.482 383.091 305.439 383.048 305.388C383.005 305.336 382.972 305.277 382.952 305.212C382.933 305.148 382.926 305.081 382.932 305.014C382.939 304.947 382.958 304.882 382.99 304.823C383.053 304.705 383.159 304.617 383.286 304.577C383.414 304.537 383.552 304.549 383.67 304.61C383.721 304.61 388.745 307.218 392.105 306.914C392.164 306.912 392.222 306.894 392.273 306.862C392.323 306.83 392.363 306.784 392.389 306.731C393.475 304.863 389.75 295.069 387.152 289.334C387.106 289.213 387.108 289.079 387.157 288.96C387.207 288.841 387.3 288.745 387.418 288.692C387.536 288.638 387.669 288.632 387.791 288.674C387.913 288.716 388.015 288.803 388.075 288.918C388.786 290.481 394.967 304.315 393.262 307.188C393.157 307.383 393.004 307.549 392.817 307.669C392.631 307.79 392.418 307.862 392.196 307.878C391.953 307.949 391.719 307.959 391.526 307.959Z" fill="#3E4C62"/>
<path d="M378.149 297.779C379.09 297.779 379.854 296.311 379.854 294.5C379.854 292.689 379.09 291.222 378.149 291.222C377.207 291.222 376.443 292.689 376.443 294.5C376.443 296.311 377.207 297.779 378.149 297.779Z" fill="#3E4C62"/>
<path d="M399.636 297.779C400.578 297.779 401.341 296.311 401.341 294.5C401.341 292.689 400.578 291.222 399.636 291.222C398.694 291.222 397.931 292.689 397.931 294.5C397.931 296.311 398.694 297.779 399.636 297.779Z" fill="#3E4C62"/>
<path d="M408.629 338.389C408.02 338.389 387.984 355.238 387.984 355.238L400.367 369.681L413.562 344.438L408.629 338.389Z" fill="white"/>
<path d="M400.367 370.148C400.294 370.146 400.221 370.128 400.155 370.097C400.089 370.065 400.03 370.02 399.981 369.965L387.598 355.532C387.511 355.427 387.467 355.293 387.476 355.156C387.483 355.09 387.502 355.025 387.533 354.966C387.565 354.906 387.607 354.854 387.659 354.811C407.827 337.841 408.396 337.841 408.629 337.841C408.704 337.841 408.778 337.858 408.847 337.889C408.915 337.921 408.976 337.966 409.025 338.023L413.998 344.113C414.061 344.191 414.099 344.285 414.108 344.385C414.117 344.484 414.096 344.584 414.049 344.672L400.854 369.915C400.814 369.987 400.757 370.049 400.688 370.095C400.619 370.141 400.541 370.169 400.458 370.178L400.367 370.148ZM388.705 355.258L400.265 368.737L412.993 344.458L408.517 339.008C406.497 340.439 395.962 349.198 388.705 355.299V355.258Z" fill="#3E4C62"/>
<path d="M364.05 338.247C364.71 338.247 388.177 355.238 388.177 355.238L373.865 369.681L359.544 342.114L364.05 338.247Z" fill="white"/>
<path d="M373.865 370.148H373.784C373.705 370.137 373.63 370.107 373.565 370.061C373.499 370.015 373.446 369.954 373.408 369.884L359.097 342.317C359.044 342.215 359.028 342.098 359.05 341.986C359.072 341.873 359.132 341.772 359.219 341.697L363.715 337.83C363.808 337.751 363.927 337.707 364.05 337.709C364.253 337.709 364.872 337.709 388.471 354.801C388.532 354.842 388.583 354.896 388.62 354.959C388.657 355.022 388.679 355.093 388.684 355.167C388.69 355.239 388.681 355.312 388.656 355.38C388.632 355.448 388.593 355.51 388.542 355.562L374.271 370.036C374.215 370.082 374.15 370.116 374.08 370.135C374.01 370.154 373.937 370.159 373.865 370.148V370.148ZM360.183 342.235L373.987 368.828L387.395 355.298C378.727 349.026 366.08 340.013 364.131 338.845L360.183 342.235Z" fill="#3E4C62"/>
<path d="M387.953 322.991H387.223C377.55 322.311 375.51 311.278 375.489 311.166C375.475 311.095 375.477 311.022 375.494 310.952C375.512 310.882 375.545 310.816 375.591 310.76C375.638 310.704 375.697 310.659 375.764 310.627C375.83 310.596 375.903 310.579 375.976 310.578L401.768 309.705C401.853 309.699 401.938 309.716 402.014 309.753C402.091 309.79 402.156 309.847 402.204 309.918C402.244 309.991 402.265 310.073 402.265 310.156C402.265 310.24 402.244 310.322 402.204 310.395C402.052 310.902 397.129 322.991 387.953 322.991ZM376.616 311.542C377.174 313.734 379.661 321.428 387.294 321.956C394.926 322.484 399.748 313.389 400.996 310.73L376.616 311.542Z" fill="#3E4C62"/>
<path d="M356.235 276.616H361.076V309.096H356.245C353.79 309.096 351.435 308.12 349.699 306.384C347.963 304.648 346.988 302.294 346.988 299.839V285.903C346.984 284.686 347.22 283.479 347.683 282.354C348.146 281.228 348.826 280.204 349.685 279.341C350.544 278.479 351.564 277.794 352.688 277.326C353.812 276.858 355.017 276.617 356.235 276.616V276.616Z" fill="white"/>
<path d="M361.076 309.603H356.235C353.645 309.598 351.163 308.566 349.333 306.734C347.502 304.902 346.473 302.419 346.47 299.829V285.903C346.473 283.313 347.502 280.83 349.333 278.998C351.163 277.166 353.645 276.134 356.235 276.129H361.076C361.21 276.131 361.338 276.186 361.432 276.28C361.527 276.375 361.581 276.502 361.584 276.636V309.116C361.576 309.246 361.52 309.369 361.425 309.459C361.331 309.55 361.207 309.601 361.076 309.603V309.603ZM356.235 277.123C353.911 277.129 351.684 278.056 350.043 279.703C348.403 281.349 347.483 283.579 347.485 285.903V299.829C347.488 302.149 348.41 304.374 350.05 306.016C351.69 307.658 353.914 308.583 356.235 308.588H360.569V277.123H356.235Z" fill="#3E4C62"/>
<path d="M418.444 308.243H413.613V275.763H418.444C419.66 275.763 420.863 276.003 421.986 276.468C423.11 276.933 424.13 277.615 424.99 278.474C425.849 279.334 426.531 280.354 426.996 281.478C427.461 282.601 427.701 283.804 427.701 285.02V298.976C427.702 300.193 427.464 301.397 426.999 302.522C426.534 303.646 425.853 304.668 424.993 305.528C424.133 306.389 423.113 307.072 421.989 307.538C420.865 308.003 419.66 308.243 418.444 308.243V308.243Z" fill="white"/>
<path d="M418.434 308.741H413.602C413.468 308.741 413.339 308.687 413.244 308.592C413.148 308.497 413.095 308.368 413.095 308.233V275.753C413.095 275.619 413.148 275.489 413.244 275.394C413.339 275.299 413.468 275.246 413.602 275.246H418.434C421.024 275.246 423.509 276.274 425.342 278.105C427.175 279.936 428.206 282.419 428.208 285.01V298.976C428.203 301.566 427.171 304.048 425.339 305.878C423.507 307.709 421.024 308.738 418.434 308.741V308.741ZM414.11 307.726H418.434C420.754 307.723 422.979 306.801 424.621 305.161C426.263 303.521 427.188 301.297 427.193 298.976V285.02C427.188 282.699 426.263 280.476 424.621 278.836C422.979 277.196 420.754 276.273 418.434 276.271H414.11V307.726Z" fill="#3E4C62"/>
<path d="M418.718 284.736C418.449 284.736 418.191 284.629 418 284.438C417.81 284.248 417.703 283.99 417.703 283.721C417.703 266.77 407.096 252.987 394.074 252.987H380.879C367.856 252.987 357.25 266.77 357.25 283.721C357.25 283.99 357.143 284.248 356.952 284.438C356.762 284.629 356.504 284.736 356.235 284.736C355.966 284.736 355.707 284.629 355.517 284.438C355.327 284.248 355.22 283.99 355.22 283.721C355.22 265.654 366.73 250.957 380.879 250.957H394.074C408.223 250.957 419.733 265.654 419.733 283.721C419.733 283.99 419.626 284.248 419.436 284.438C419.245 284.629 418.987 284.736 418.718 284.736Z" fill="#3E4C62"/>
<path d="M366.963 318.951C362.081 318.951 358.133 318.698 357.453 317.936C355.697 315.906 355.149 306.629 355.088 305.574C355.082 305.44 355.129 305.309 355.218 305.208C355.307 305.108 355.431 305.046 355.565 305.036C355.633 305.03 355.701 305.039 355.765 305.061C355.83 305.082 355.889 305.117 355.939 305.163C355.99 305.209 356.03 305.264 356.058 305.326C356.086 305.388 356.102 305.455 356.103 305.523C356.255 308.294 356.925 315.815 358.214 317.267C359.31 318.282 374.19 318.018 387.953 317.094C388.087 317.091 388.216 317.138 388.316 317.227C388.416 317.315 388.479 317.438 388.491 317.571C388.495 317.638 388.486 317.705 388.465 317.768C388.443 317.831 388.409 317.889 388.365 317.939C388.32 317.989 388.266 318.03 388.206 318.059C388.146 318.088 388.081 318.105 388.014 318.109C385.061 318.302 374.809 318.951 366.963 318.951Z" fill="#3E4C62"/>
<path d="M386.563 315.744H375.611C374.383 315.744 373.388 316.739 373.388 317.967C373.388 319.195 374.383 320.19 375.611 320.19H386.563C387.791 320.19 388.786 319.195 388.786 317.967C388.786 316.739 387.791 315.744 386.563 315.744Z" fill="#3E4C62"/>
<path d="M386.563 320.697H375.611C374.887 320.697 374.192 320.41 373.68 319.898C373.168 319.386 372.881 318.691 372.881 317.967C372.881 317.243 373.168 316.548 373.68 316.036C374.192 315.524 374.887 315.237 375.611 315.237H386.563C387.287 315.237 387.982 315.524 388.494 316.036C389.006 316.548 389.293 317.243 389.293 317.967C389.293 318.691 389.006 319.386 388.494 319.898C387.982 320.41 387.287 320.697 386.563 320.697V320.697ZM375.611 316.252C375.156 316.252 374.72 316.432 374.398 316.754C374.076 317.076 373.896 317.512 373.896 317.967C373.896 318.422 374.076 318.858 374.398 319.18C374.72 319.502 375.156 319.682 375.611 319.682H386.563C387.018 319.682 387.454 319.502 387.776 319.18C388.098 318.858 388.278 318.422 388.278 317.967C388.278 317.512 388.098 317.076 387.776 316.754C387.454 316.432 387.018 316.252 386.563 316.252H375.611Z" fill="#3E4C62"/>
<path d="M381.376 298.793H370.384C368.639 298.791 366.966 298.096 365.732 296.861C364.499 295.625 363.807 293.951 363.807 292.206V286.451C363.807 286.317 363.86 286.187 363.955 286.092C364.05 285.997 364.18 285.944 364.314 285.944H387.466C387.601 285.944 387.73 285.997 387.825 286.092C387.92 286.187 387.974 286.317 387.974 286.451V292.206C387.971 293.954 387.275 295.63 386.038 296.865C384.801 298.1 383.124 298.794 381.376 298.793V298.793ZM364.822 286.918V292.166C364.822 293.642 365.407 295.057 366.45 296.102C367.493 297.147 368.908 297.735 370.384 297.738H381.376C382.853 297.735 384.269 297.147 385.314 296.103C386.358 295.058 386.946 293.643 386.949 292.166V286.918H364.822Z" fill="#3E4C62"/>
<path d="M408.355 298.793H397.322C395.576 298.791 393.902 298.096 392.667 296.861C391.432 295.626 390.737 293.952 390.734 292.206V286.451C390.734 286.317 390.788 286.187 390.883 286.092C390.978 285.997 391.107 285.944 391.242 285.944H414.425C414.559 285.944 414.688 285.997 414.783 286.092C414.879 286.187 414.932 286.317 414.932 286.451V292.206C414.932 293.951 414.239 295.625 413.006 296.861C411.773 298.096 410.1 298.791 408.355 298.793ZM391.749 286.918V292.166C391.752 293.643 392.34 295.058 393.385 296.103C394.429 297.147 395.845 297.735 397.322 297.738H408.355C409.831 297.735 411.246 297.147 412.289 296.102C413.331 295.057 413.917 293.642 413.917 292.166V286.918H391.749Z" fill="#3E4C62"/>
<path d="M391.242 289.628C391.144 289.631 391.048 289.603 390.968 289.547C390.645 289.265 390.267 289.053 389.859 288.924C389.45 288.795 389.019 288.751 388.593 288.796C388.475 288.834 388.367 288.898 388.276 288.982C388.185 289.066 388.113 289.169 388.065 289.283C388.021 289.409 387.929 289.513 387.81 289.572C387.69 289.63 387.552 289.64 387.426 289.598C387.363 289.578 387.304 289.546 387.254 289.504C387.203 289.462 387.162 289.41 387.132 289.351C387.101 289.292 387.083 289.228 387.078 289.163C387.072 289.097 387.08 289.031 387.101 288.968C387.194 288.708 387.345 288.471 387.542 288.276C387.738 288.081 387.976 287.933 388.238 287.842C389.11 287.537 390.268 287.842 391.526 288.705C391.614 288.766 391.681 288.854 391.716 288.956C391.751 289.057 391.752 289.167 391.721 289.27C391.689 289.373 391.626 289.463 391.54 289.527C391.454 289.591 391.349 289.627 391.242 289.628Z" fill="#3E4C62"/>
<path d="M364.314 289.628H361.076C360.942 289.628 360.813 289.575 360.717 289.479C360.622 289.384 360.569 289.255 360.569 289.121C360.569 288.986 360.622 288.857 360.717 288.762C360.813 288.667 360.942 288.613 361.076 288.613H364.314C364.448 288.616 364.575 288.67 364.67 288.765C364.765 288.859 364.819 288.987 364.822 289.121C364.822 289.255 364.768 289.384 364.673 289.479C364.578 289.575 364.449 289.628 364.314 289.628Z" fill="#3E4C62"/>
<path d="M449.148 479.23H318.781L307.027 394.031H460.912L449.148 479.23Z" fill="#3E4C62"/>
<path d="M449.148 479.768H318.781C318.659 479.769 318.541 479.725 318.449 479.644C318.358 479.564 318.299 479.453 318.284 479.332L306.52 394.102C306.507 393.959 306.551 393.817 306.642 393.706C306.69 393.651 306.749 393.606 306.816 393.575C306.882 393.543 306.954 393.526 307.027 393.523H460.912C460.984 393.525 461.055 393.542 461.12 393.573C461.184 393.605 461.242 393.65 461.287 393.706C461.337 393.758 461.373 393.821 461.394 393.89C461.415 393.958 461.421 394.031 461.409 394.102L449.655 479.301C449.645 479.429 449.587 479.547 449.493 479.634C449.399 479.721 449.276 479.768 449.148 479.768V479.768ZM319.228 478.753H448.711L460.323 394.508H307.606L319.228 478.753Z" fill="#3E4C62"/>
<path d="M450.335 479.23H317.32C315.571 479.23 314.153 480.648 314.153 482.397V482.407C314.153 484.156 315.571 485.574 317.32 485.574H450.335C452.084 485.574 453.502 484.156 453.502 482.407V482.397C453.502 480.648 452.084 479.23 450.335 479.23Z" fill="#3E4C62"/>
<path d="M450.396 486.081H317.431C316.932 486.108 316.432 486.032 315.963 485.859C315.494 485.686 315.065 485.419 314.702 485.075C314.339 484.731 314.05 484.316 313.853 483.857C313.655 483.397 313.553 482.902 313.553 482.402C313.553 481.902 313.655 481.407 313.853 480.947C314.05 480.488 314.339 480.073 314.702 479.729C315.065 479.385 315.494 479.118 315.963 478.945C316.432 478.772 316.932 478.696 317.431 478.723H450.396C451.339 478.772 452.226 479.181 452.876 479.866C453.525 480.551 453.887 481.458 453.887 482.402C453.887 483.346 453.525 484.253 452.876 484.938C452.226 485.623 451.339 486.032 450.396 486.081ZM317.33 479.768C316.966 479.746 316.602 479.798 316.259 479.922C315.916 480.045 315.602 480.238 315.337 480.488C315.071 480.737 314.86 481.038 314.715 481.373C314.57 481.707 314.496 482.068 314.496 482.432C314.496 482.797 314.57 483.157 314.715 483.492C314.86 483.826 315.071 484.128 315.337 484.377C315.602 484.627 315.916 484.82 316.259 484.943C316.602 485.067 316.966 485.119 317.33 485.097H450.396C451.074 485.055 451.711 484.756 452.177 484.261C452.642 483.766 452.901 483.112 452.901 482.432C452.901 481.753 452.642 481.099 452.177 480.604C451.711 480.109 451.074 479.81 450.396 479.768H317.33Z" fill="#3E4C62"/>
<path d="M444.398 479.768H317.33C317.195 479.768 317.066 479.714 316.971 479.619C316.876 479.524 316.822 479.395 316.822 479.26C316.822 479.126 316.876 478.997 316.971 478.902C317.066 478.806 317.195 478.753 317.33 478.753H444.398C444.532 478.753 444.661 478.806 444.756 478.902C444.852 478.997 444.905 479.126 444.905 479.26C444.905 479.395 444.852 479.524 444.756 479.619C444.661 479.714 444.532 479.768 444.398 479.768Z" fill="white"/>
<path d="M352.175 295.038H348.257C348.122 295.038 347.993 294.984 347.898 294.889C347.803 294.794 347.749 294.665 347.749 294.53C347.749 294.396 347.803 294.267 347.898 294.172C347.993 294.076 348.122 294.023 348.257 294.023H352.175C352.309 294.023 352.438 294.076 352.534 294.172C352.629 294.267 352.682 294.396 352.682 294.53C352.682 294.665 352.629 294.794 352.534 294.889C352.438 294.984 352.309 295.038 352.175 295.038Z" fill="#D1D3D4"/>
<path d="M352.175 298.794H348.257C348.122 298.794 347.993 298.74 347.898 298.645C347.803 298.55 347.749 298.421 347.749 298.286C347.749 298.151 347.803 298.022 347.898 297.927C347.993 297.832 348.122 297.779 348.257 297.779H352.175C352.309 297.779 352.438 297.832 352.534 297.927C352.629 298.022 352.682 298.151 352.682 298.286C352.682 298.421 352.629 298.55 352.534 298.645C352.438 298.74 352.309 298.794 352.175 298.794Z" fill="#D1D3D4"/>
<path d="M362.419 442.041H352.274C352.447 442.966 352.932 443.801 353.648 444.404C354.383 445.004 355.308 445.32 356.251 445.289C357.021 445.313 357.783 445.118 358.449 444.722C358.618 444.614 358.782 444.497 358.94 444.371C359.299 444.083 359.74 443.924 360.198 443.912C360.656 443.9 361.105 444.038 361.477 444.308L361.53 444.347C361.819 444.554 362.051 444.83 362.205 445.151C362.36 445.473 362.431 445.827 362.416 446.184C362.399 446.541 362.294 446.886 362.11 447.193C361.926 447.499 361.67 447.751 361.361 447.931C361.087 448.087 360.801 448.231 360.507 448.363C359.246 448.931 357.881 449.225 356.498 449.225C355.234 449.234 353.978 449.024 352.786 448.604C351.67 448.219 350.641 447.616 349.758 446.829C348.901 446.052 348.214 445.103 347.741 444.044C347.236 442.906 346.983 441.669 347.001 440.423C346.983 439.175 347.236 437.941 347.738 436.8C348.214 435.744 348.904 434.795 349.761 434.023C350.644 433.237 351.673 432.634 352.789 432.249C353.981 431.829 355.237 431.619 356.501 431.628C357.637 431.613 358.767 431.823 359.823 432.249C360.79 432.64 361.655 433.246 362.357 434.023C363.071 434.831 363.615 435.777 363.957 436.8C364.302 437.821 364.489 438.886 364.513 439.964C364.495 440.186 364.293 441.93 362.416 442.053V442.041H362.419ZM359.246 438.523C359.264 438.109 359.195 437.695 359.044 437.307C358.892 436.92 358.663 436.572 358.368 436.281C358.059 435.969 357.69 435.726 357.286 435.566C356.878 435.407 356.444 435.332 356.01 435.347C355.483 435.338 354.963 435.431 354.472 435.623C354.053 435.792 353.666 436.029 353.33 436.332C353.021 436.611 352.768 436.95 352.592 437.332C352.411 437.704 352.304 438.109 352.277 438.523H359.246Z" fill="white"/>
<path d="M365.994 426.66C365.994 425.954 366.271 425.279 366.768 424.777C367.261 424.279 367.931 424 368.63 424C369.329 424 369.998 424.279 370.494 424.78C370.988 425.279 371.268 425.957 371.268 426.663V446.505C371.268 447.211 370.991 447.886 370.494 448.387C370.001 448.886 369.329 449.168 368.63 449.168C367.931 449.168 367.261 448.889 366.765 448.387C366.271 447.889 365.991 447.211 365.991 446.505V426.66H365.994Z" fill="white"/>
<path fill-rule="evenodd" clip-rule="evenodd" d="M376.541 426.149C377.044 426.149 377.532 426.3 377.951 426.582C378.367 426.864 378.692 427.263 378.885 427.731C379.078 428.2 379.126 428.713 379.028 429.208C378.93 429.704 378.689 430.16 378.335 430.517C377.981 430.874 377.529 431.118 377.038 431.217C376.547 431.316 376.036 431.265 375.575 431.072C375.111 430.877 374.715 430.55 374.438 430.13C374.159 429.71 374.01 429.214 374.01 428.707C374.01 428.029 374.278 427.377 374.754 426.897C375.224 426.417 375.869 426.149 376.541 426.149Z" fill="white"/>
<path fill-rule="evenodd" clip-rule="evenodd" d="M384.39 426.077C384.893 426.077 385.381 426.227 385.8 426.51C386.216 426.792 386.541 427.191 386.734 427.659C386.924 428.128 386.975 428.641 386.877 429.139C386.778 429.635 386.538 430.091 386.184 430.448C385.83 430.805 385.378 431.048 384.884 431.148C384.393 431.247 383.882 431.196 383.418 431C382.954 430.805 382.558 430.478 382.281 430.058C382.002 429.638 381.856 429.142 381.856 428.635C381.856 427.957 382.124 427.308 382.6 426.828C383.073 426.348 383.718 426.077 384.39 426.077Z" fill="white"/>
<path d="M373.977 435.11C373.977 434.404 374.254 433.729 374.751 433.228C375.244 432.729 375.917 432.447 376.615 432.447C377.314 432.447 377.984 432.726 378.48 433.228C378.974 433.726 379.254 434.404 379.254 435.11V446.556C379.254 447.262 378.977 447.937 378.48 448.438C377.987 448.937 377.314 449.219 376.615 449.219C375.917 449.219 375.247 448.94 374.751 448.438C374.257 447.94 373.977 447.262 373.977 446.556V435.11Z" fill="white"/>
<path d="M381.669 435.14C381.669 434.434 381.945 433.759 382.442 433.258C382.936 432.759 383.608 432.477 384.307 432.477C385.006 432.477 385.675 432.756 386.172 433.258C386.665 433.756 386.945 434.434 386.945 435.14V446.586C386.945 447.291 386.668 447.967 386.172 448.468C385.678 448.966 385.006 449.249 384.307 449.249C383.608 449.249 382.939 448.969 382.442 448.468C381.948 447.97 381.669 447.291 381.669 446.586V435.14Z" fill="white"/>
<path d="M415.709 449.225C415.269 449.225 415.07 449.225 414.754 449.225C413.939 449.24 413.124 449.134 412.339 448.915C411.625 448.726 410.956 448.405 410.361 447.964C409.799 447.562 409.344 447.021 409.044 446.394C408.708 445.658 408.547 444.854 408.568 444.046V434.374V426.476C408.568 425.831 408.824 425.21 409.276 424.753C409.728 424.297 410.343 424.039 410.983 424.039H411.364C412.003 424.039 412.619 424.297 413.071 424.753C413.523 425.21 413.779 425.831 413.779 426.476V429.986H417.101C417.678 429.989 418.228 430.22 418.636 430.631C419.043 431.042 419.269 431.601 419.269 432.18C419.269 432.762 419.04 433.321 418.633 433.732C418.225 434.143 417.672 434.374 417.095 434.374H413.779V441.81C413.776 442.23 413.797 442.647 413.844 443.065C413.88 443.413 413.987 443.746 414.159 444.049C414.338 444.338 414.603 444.56 414.915 444.689C415.177 444.797 415.447 444.872 415.727 444.911H416.878C417.446 444.911 417.99 445.139 418.392 445.544C418.793 445.95 419.019 446.499 419.019 447.072C419.019 447.646 418.793 448.195 418.392 448.6C417.99 449.005 417.446 449.234 416.878 449.234H415.706V449.225H415.709Z" fill="white"/>
<path fill-rule="evenodd" clip-rule="evenodd" d="M397.745 430.16C399.618 430.16 401.448 430.718 403.006 431.769C404.565 432.819 405.778 434.311 406.495 436.058C407.212 437.805 407.399 439.727 407.033 441.579C406.667 443.434 405.766 445.136 404.443 446.472C403.119 447.808 401.433 448.717 399.595 449.086C397.756 449.456 395.853 449.267 394.125 448.543C392.394 447.82 390.916 446.595 389.875 445.022C388.834 443.449 388.281 441.603 388.281 439.712C388.283 437.178 389.28 434.75 391.055 432.957C392.828 431.171 395.234 430.163 397.745 430.16ZM393.825 443.509C392.798 442.461 392.227 441.047 392.23 439.574C392.245 438.496 392.578 437.448 393.182 436.563C393.786 435.674 394.636 434.99 395.627 434.587C396.617 434.188 397.703 434.089 398.747 434.311C399.791 434.53 400.749 435.059 401.495 435.824C402.245 436.593 402.75 437.565 402.952 438.622C403.155 439.679 403.042 440.774 402.631 441.765C402.218 442.759 401.525 443.605 400.639 444.202C399.749 444.8 398.708 445.118 397.64 445.115C397.066 445.115 396.498 445.022 395.957 444.839C395.065 445.445 393.973 445.673 392.917 445.475C392.891 445.469 392.867 445.457 392.849 445.436C392.831 445.415 392.822 445.391 392.819 445.361C392.816 445.334 392.825 445.307 392.837 445.286C392.852 445.262 392.873 445.247 392.897 445.235C393.896 444.878 393.872 443.866 393.83 443.509H393.825Z" fill="url(#paint0_linear_204_455)"/>
<defs>
<linearGradient id="paint0_linear_204_455" x1="388.279" y1="439.717" x2="407.215" y2="439.717" gradientUnits="userSpaceOnUse">
<stop stop-color="#30B4AD"/>
<stop offset="1" stop-color="#1B8B9A"/>
</linearGradient>
</defs>
</svg>
