<svg width="20" height="20" viewBox="0 0 20 20" fill="none" xmlns="http://www.w3.org/2000/svg">
<path fill-rule="evenodd" clip-rule="evenodd" d="M5.95714 0H14.0429C17.3286 0 20 2.60825 20 5.8096V13.6844C20 16.8857 17.3286 19.494 14.0429 19.494H5.95714C2.67143 19.494 0 16.8857 0 13.6844V5.8096C0 2.60825 2.67143 0 5.95714 0ZM14.0427 17.5288C16.2213 17.5288 17.9856 15.8066 17.9856 13.6843V5.80956C17.9856 3.68009 16.2213 1.95793 14.0427 1.95793H5.95702C3.77845 1.95793 2.01416 3.68009 2.01416 5.80956V13.6843C2.01416 15.8066 3.77845 17.5288 5.95702 17.5288H14.0427Z" fill="#1BBCB2"/>
<path fill-rule="evenodd" clip-rule="evenodd" d="M4.82812 9.74616C4.82812 6.96642 7.14955 4.70117 9.99955 4.70117C12.8496 4.70117 15.171 6.96642 15.171 9.74616C15.171 12.5259 12.8496 14.784 9.99955 14.784C7.14955 14.784 4.82812 12.5259 4.82812 9.74616ZM6.83508 9.74579C6.83508 11.4465 8.25651 12.8257 9.99936 12.8257C11.7422 12.8257 13.1565 11.4465 13.1565 9.74579C13.1565 8.04507 11.7422 6.66591 9.99936 6.66591C8.25651 6.66591 6.83508 8.04507 6.83508 9.74579Z" fill="#1BBCB2"/>
<path d="M15.1862 5.95242C15.8648 5.95242 16.4219 5.40933 16.4219 4.74476C16.4219 4.07305 15.8648 3.53711 15.1862 3.53711C14.5005 3.53711 13.9434 4.07305 13.9434 4.74476C13.9434 5.40933 14.5005 5.95242 15.1862 5.95242Z" fill="#1BBCB2"/>
</svg>
