<svg width="20" height="20" viewBox="0 0 20 20" fill="none" xmlns="http://www.w3.org/2000/svg">
<path fill-rule="evenodd" clip-rule="evenodd" d="M17.2728 16.8182C17.2728 17.0691 17.0691 17.2728 16.8182 17.2728H14.0909C13.84 17.2728 13.6364 17.0691 13.6364 16.8182V11.8182C13.6364 10.68 13.1264 10 12.2728 10C11.4191 10 10.9091 10.68 10.9091 11.8182V16.8182C10.9091 17.0691 10.7055 17.2728 10.4546 17.2728H7.72731C7.4764 17.2728 7.27276 17.0691 7.27276 16.8182V7.72731C7.27276 7.4764 7.4764 7.27276 7.72731 7.27276H10.4546C10.7055 7.27276 10.9091 7.4764 10.9091 7.72731V8.01276C11.5 7.55094 12.1964 7.27276 13.1819 7.27276C15.6664 7.27276 17.2728 9.0564 17.2728 11.8182V16.8182ZM4.54542 6.3636C3.54269 6.3636 2.72724 5.54815 2.72724 4.54542C2.72724 3.54269 3.54269 2.72724 4.54542 2.72724C5.54815 2.72724 6.3636 3.54269 6.3636 4.54542C6.3636 5.54815 5.54815 6.3636 4.54542 6.3636ZM6.3636 16.8182C6.3636 17.0691 6.15997 17.2728 5.90906 17.2728H3.18178C2.93088 17.2728 2.72724 17.0691 2.72724 16.8182V7.72731C2.72724 7.4764 2.93088 7.27276 3.18178 7.27276H5.90906C6.15997 7.27276 6.3636 7.4764 6.3636 7.72731V16.8182ZM18.1818 0H1.81818C0.815454 0 0 0.815454 0 1.81818V18.1818C0 19.1845 0.815454 20 1.81818 20H18.1818C19.1845 20 20 19.1845 20 18.1818V1.81818C20 0.815454 19.1845 0 18.1818 0Z" fill="#1BBCB2"/>
</svg>
