<svg width="102" height="35" viewBox="0 0 102 35" fill="none" xmlns="http://www.w3.org/2000/svg">
<path d="M21.5527 24.9873H7.37031C7.61258 26.2673 8.29069 27.4238 9.28934 28.2604C10.3164 29.0915 11.6072 29.5272 12.9278 29.4885C14.0052 29.5238 15.0703 29.2512 15.9983 28.7025C16.2345 28.5524 16.463 28.3905 16.683 28.2174C17.185 27.8198 17.8026 27.5961 18.4428 27.58C19.083 27.564 19.7111 27.7564 20.2324 28.1283L20.3061 28.1805C20.7092 28.4674 21.0338 28.851 21.2501 29.296C21.4663 29.7411 21.5673 30.2333 21.5438 30.7275C21.5203 31.2218 21.373 31.7022 21.1154 32.1247C20.8578 32.5471 20.4982 32.8981 20.0697 33.1454C19.6859 33.3604 19.2898 33.5599 18.8753 33.7442C17.112 34.5314 15.2027 34.9383 13.2717 34.9386C11.5057 34.9497 9.75074 34.6589 8.08265 34.0788C6.52493 33.5453 5.08731 32.7107 3.85158 31.6225C2.65405 30.5458 1.69408 29.2313 1.03291 27.7629C0.328322 26.1844 -0.0237386 24.4712 0.00124222 22.7428C-0.02339 21.0153 0.328665 19.3032 1.03291 17.7257C1.69824 16.2608 2.66131 14.9506 3.86079 13.8784C5.09652 12.7902 6.53414 11.9556 8.09186 11.422C9.75957 10.8405 11.5148 10.5497 13.2809 10.5623C14.8709 10.5405 16.4496 10.8326 17.9265 11.422C19.2764 11.964 20.4865 12.8037 21.4667 13.8784C22.464 14.9972 23.2253 16.3057 23.7051 17.7257C24.1855 19.1381 24.4475 20.6156 24.4819 22.1072C24.4573 22.4142 24.1748 24.8307 21.5527 25.0026V24.9873ZM17.1159 20.1145C17.1412 19.5397 17.0449 18.9662 16.8332 18.4312C16.6216 17.8963 16.2994 17.4121 15.8877 17.0102C15.4567 16.5793 14.9413 16.242 14.3739 16.0195C13.8064 15.7971 13.1991 15.6943 12.5901 15.7176C11.8556 15.7055 11.1257 15.8358 10.4408 16.1014C9.85561 16.3325 9.3153 16.664 8.84412 17.0809C8.4101 17.4679 8.05913 17.939 7.81245 18.4656C7.56075 18.9818 7.41064 19.5416 7.37031 20.1145H17.1159Z" fill="#5C7190"/>
<path d="M26.5483 3.68453C26.5483 2.70733 26.9365 1.77016 27.6275 1.07917C28.3185 0.388191 29.2557 0 30.2329 0V0C31.2101 0 32.1472 0.388191 32.8382 1.07917C33.5292 1.77016 33.9174 2.70733 33.9174 3.68453V31.165C33.9174 32.1422 33.5292 33.0794 32.8382 33.7704C32.1472 34.4613 31.2101 34.8495 30.2329 34.8495C29.2557 34.8495 28.3185 34.4613 27.6275 33.7704C26.9365 33.0794 26.5483 32.1422 26.5483 31.165V3.68453Z" fill="#5C7190"/>
<path fill-rule="evenodd" clip-rule="evenodd" d="M41.2895 2.97523C41.9903 2.97523 42.6754 3.18305 43.2581 3.57239C43.8407 3.96173 44.2949 4.51512 44.5631 5.16257C44.8313 5.81002 44.9014 6.52246 44.7647 7.20979C44.628 7.89712 44.2905 8.52848 43.795 9.02401C43.2995 9.51955 42.6681 9.85702 41.9808 9.99374C41.2934 10.1305 40.581 10.0603 39.9335 9.7921C39.2861 9.52392 38.7327 9.06977 38.3434 8.48708C37.954 7.90438 37.7462 7.21932 37.7462 6.51853C37.7462 5.57879 38.1195 4.67754 38.784 4.01304C39.4485 3.34855 40.3498 2.97523 41.2895 2.97523Z" fill="#5C7190"/>
<path fill-rule="evenodd" clip-rule="evenodd" d="M52.2602 2.877C52.9611 2.877 53.6463 3.08489 54.2291 3.47437C54.8118 3.86384 55.266 4.41741 55.5341 5.06504C55.8022 5.71267 55.8722 6.42527 55.7352 7.11268C55.5982 7.8001 55.2605 8.43145 54.7646 8.92686C54.2688 9.42228 53.6371 9.7595 52.9496 9.89587C52.2621 10.0322 51.5495 9.96164 50.9021 9.69299C50.2547 9.42433 49.7016 8.9697 49.3126 8.38661C48.9236 7.80351 48.7163 7.11815 48.7169 6.41722C48.7177 5.47801 49.0914 4.57755 49.7558 3.91372C50.4202 3.24989 51.321 2.877 52.2602 2.877Z" fill="#5C7190"/>
<path d="M37.7063 15.386C37.7063 14.4088 38.0945 13.4716 38.7855 12.7806C39.4765 12.0897 40.4136 11.7015 41.3908 11.7015C42.368 11.7015 43.3052 12.0897 43.9962 12.7806C44.6872 13.4716 45.0754 14.4088 45.0754 15.386V31.2387C45.0754 32.2159 44.6872 33.1531 43.9962 33.8441C43.3052 34.535 42.368 34.9232 41.3908 34.9232C40.4136 34.9232 39.4765 34.535 38.7855 33.8441C38.0945 33.1531 37.7063 32.2159 37.7063 31.2387V15.386Z" fill="#5C7190"/>
<path d="M48.4559 15.429C48.4559 14.4518 48.8441 13.5146 49.5351 12.8236C50.2261 12.1326 51.1633 11.7444 52.1405 11.7444C53.1177 11.7444 54.0548 12.1326 54.7458 12.8236C55.4368 13.5146 55.825 14.4518 55.825 15.429V31.2817C55.825 32.2589 55.4368 33.1961 54.7458 33.887C54.0548 34.578 53.1177 34.9662 52.1405 34.9662C51.1633 34.9662 50.2261 34.578 49.5351 33.887C48.8441 33.1961 48.4559 32.2589 48.4559 31.2817V15.429Z" fill="#5C7190"/>
<path d="M96.0387 34.9355C95.4246 34.9355 95.1452 34.9355 94.703 34.9355C93.5624 34.9549 92.4249 34.8102 91.3255 34.5057C90.3297 34.2444 89.3921 33.7975 88.5621 33.1884C87.7753 32.6299 87.1417 31.8823 86.7199 31.0146C86.2512 29.9963 86.0242 28.8835 86.0566 27.763V14.3666V3.4297C86.0566 2.53394 86.4125 1.67486 87.0459 1.04146C87.6793 0.408057 88.5384 0.0522156 89.4341 0.0522156H89.9653C90.8611 0.0522156 91.7202 0.408057 92.3536 1.04146C92.987 1.67486 93.3428 2.53394 93.3428 3.4297V8.29022H97.9884C98.793 8.29266 99.5638 8.61399 100.132 9.18379C100.7 9.75358 101.019 10.5254 101.019 11.33C101.019 12.1361 100.699 12.9093 100.129 13.4794C99.5585 14.0494 98.7854 14.3697 97.9792 14.3697H93.3428V24.668C93.3383 25.2486 93.3691 25.8289 93.4349 26.4058C93.4852 26.8862 93.6358 27.3507 93.8771 27.7691C94.1281 28.167 94.4974 28.4763 94.9333 28.6534C95.2966 28.8029 95.6772 28.9061 96.0663 28.9604H97.6752C98.4684 28.9604 99.229 29.2755 99.7899 29.8364C100.351 30.3972 100.666 31.1579 100.666 31.9511C100.666 32.7442 100.351 33.5049 99.7899 34.0657C99.229 34.6266 98.4684 34.9417 97.6752 34.9417H96.0387V34.9355Z" fill="#5C7190"/>
<path fill-rule="evenodd" clip-rule="evenodd" d="M70.9285 8.53278C73.5462 8.53217 76.1052 9.30787 78.2819 10.7618C80.4586 12.2157 82.1553 14.2824 83.1573 16.7007C84.1593 19.1189 84.4216 21.78 83.9111 24.3474C83.4006 26.9147 82.1401 29.273 80.2892 31.124C78.4382 32.9749 76.08 34.2353 73.5126 34.7459C70.9453 35.2564 68.2842 34.9941 65.8659 33.9921C63.4477 32.9901 61.3809 31.2934 59.927 29.1167C58.4731 26.94 57.6974 24.3809 57.698 21.7633C57.7004 18.2551 59.0952 14.8913 61.5758 12.4106C64.0565 9.92993 67.4203 8.53522 70.9285 8.53278ZM65.4478 27.0199C64.0152 25.5682 63.2141 23.6094 63.2187 21.5699C63.2411 20.0791 63.7036 18.6281 64.5482 17.3995C65.3929 16.1708 66.5818 15.2192 67.9657 14.6643C69.3495 14.1094 70.8666 13.9759 72.3261 14.2806C73.7856 14.5854 75.1224 15.3148 76.1686 16.3771C77.2148 17.4394 77.9236 18.7873 78.206 20.2513C78.4883 21.7153 78.3316 23.2301 77.7556 24.6053C77.1795 25.9805 76.2098 27.1547 74.9684 27.9804C73.7269 28.8061 72.2691 29.2464 70.7781 29.246C69.9777 29.2472 69.1823 29.1186 68.4231 28.8653C67.1776 29.7064 65.6508 30.023 64.1736 29.7465C64.1366 29.7395 64.1032 29.7203 64.0786 29.6918C64.0541 29.6634 64.0399 29.6274 64.0385 29.5899C64.0359 29.5527 64.0452 29.5158 64.0651 29.4843C64.085 29.4528 64.1144 29.4285 64.149 29.4149C65.5461 28.9205 65.5123 27.5204 65.4539 27.023L65.4478 27.0199Z" fill="url(#paint0_linear)"/>
<defs>
<linearGradient id="paint0_linear" x1="57.6857" y1="21.7633" x2="84.1499" y2="21.7633" gradientUnits="userSpaceOnUse">
<stop stop-color="#1BBCB2"/>
<stop offset="1" stop-color="#198C9B"/>
</linearGradient>
</defs>
</svg>
