<svg width="96" height="96" viewBox="0 0 96 96" fill="none" xmlns="http://www.w3.org/2000/svg">
<rect opacity="0.12" x="12" width="72.8203" height="43.2656" rx="10.0547" fill="#1BBCB2"/>
<mask id="path-2-inside-1_101_567" fill="white">
<path fill-rule="evenodd" clip-rule="evenodd" d="M60.8658 50.4141C61.2024 49.2536 61.3828 48.0268 61.3828 46.7578C61.3828 45.4888 61.2024 44.262 60.8658 43.1016H63.5156C64.1887 43.1016 64.7344 43.6472 64.7344 44.3203V49.1953C64.7344 49.8684 64.1887 50.4141 63.5156 50.4141H60.8658ZM35.6967 50.4141H33.0469C32.3738 50.4141 31.8281 49.8684 31.8281 49.1953V44.3203C31.8281 43.6472 32.3738 43.1016 33.0469 43.1016H35.6967C35.3601 44.262 35.1797 45.4888 35.1797 46.7578C35.1797 48.0268 35.3601 49.2536 35.6967 50.4141Z"/>
</mask>
<path fill-rule="evenodd" clip-rule="evenodd" d="M60.8658 50.4141C61.2024 49.2536 61.3828 48.0268 61.3828 46.7578C61.3828 45.4888 61.2024 44.262 60.8658 43.1016H63.5156C64.1887 43.1016 64.7344 43.6472 64.7344 44.3203V49.1953C64.7344 49.8684 64.1887 50.4141 63.5156 50.4141H60.8658ZM35.6967 50.4141H33.0469C32.3738 50.4141 31.8281 49.8684 31.8281 49.1953V44.3203C31.8281 43.6472 32.3738 43.1016 33.0469 43.1016H35.6967C35.3601 44.262 35.1797 45.4888 35.1797 46.7578C35.1797 48.0268 35.3601 49.2536 35.6967 50.4141Z" fill="#5C7190"/>
<path d="M60.8658 50.4141L60.2806 50.2443L60.0546 51.0234H60.8658V50.4141ZM60.8658 43.1016V42.4922H60.0546L60.2806 43.2713L60.8658 43.1016ZM35.6967 50.4141V51.0234H36.5079L36.2819 50.2443L35.6967 50.4141ZM35.6967 43.1016L36.2819 43.2713L36.5079 42.4922H35.6967V43.1016ZM60.7734 46.7578C60.7734 47.9688 60.6013 49.1385 60.2806 50.2443L61.4511 50.5838C61.8035 49.3688 61.9922 48.0848 61.9922 46.7578H60.7734ZM60.2806 43.2713C60.6013 44.3772 60.7734 45.5469 60.7734 46.7578H61.9922C61.9922 45.4308 61.8035 44.1469 61.4511 42.9318L60.2806 43.2713ZM60.8658 43.7109H63.5156V42.4922H60.8658V43.7109ZM63.5156 43.7109C63.8522 43.7109 64.125 43.9838 64.125 44.3203H65.3438C65.3438 43.3107 64.5253 42.4922 63.5156 42.4922V43.7109ZM64.125 44.3203V49.1953H65.3438V44.3203H64.125ZM64.125 49.1953C64.125 49.5319 63.8522 49.8047 63.5156 49.8047V51.0234C64.5253 51.0234 65.3438 50.205 65.3438 49.1953H64.125ZM63.5156 49.8047H60.8658V51.0234H63.5156V49.8047ZM35.6967 49.8047H33.0469V51.0234H35.6967V49.8047ZM33.0469 49.8047C32.7103 49.8047 32.4375 49.5319 32.4375 49.1953H31.2188C31.2188 50.205 32.0372 51.0234 33.0469 51.0234V49.8047ZM32.4375 49.1953V44.3203H31.2188V49.1953H32.4375ZM32.4375 44.3203C32.4375 43.9838 32.7103 43.7109 33.0469 43.7109V42.4922C32.0372 42.4922 31.2188 43.3107 31.2188 44.3203H32.4375ZM33.0469 43.7109H35.6967V42.4922H33.0469V43.7109ZM35.7891 46.7578C35.7891 45.5469 35.9612 44.3772 36.2819 43.2713L35.1114 42.9318C34.759 44.1469 34.5703 45.4308 34.5703 46.7578H35.7891ZM36.2819 50.2443C35.9612 49.1385 35.7891 47.9688 35.7891 46.7578H34.5703C34.5703 48.0848 34.759 49.3688 35.1114 50.5838L36.2819 50.2443Z" fill="#5C7190" mask="url(#path-2-inside-1_101_567)"/>
<circle r="1.06641" transform="matrix(-1 0 0 1 48.2812 46.7578)" fill="#5C7190" stroke="#5C7190" stroke-width="0.304688"/>
<rect x="42.7969" y="60.1641" width="6.70312" height="2.74219" rx="1.37109" fill="#5C7190" stroke="#5C7190" stroke-width="0.609375"/>
<path d="M48.2812 60.1641C55.6853 60.1641 61.6875 54.1619 61.6875 46.7578C61.6875 39.3537 55.6853 33.3516 48.2812 33.3516C40.8772 33.3516 34.875 39.3537 34.875 46.7578" stroke="#5C7190" stroke-width="0.609375"/>
<rect x="25" y="9" width="46" height="78" rx="7" stroke="#5C7190" stroke-width="2"/>
<line x1="37" y1="79" x2="59" y2="79" stroke="#5C7190" stroke-width="2" stroke-linecap="round"/>
</svg>
