<svg width="20" height="20" viewBox="0 0 20 20" fill="none" xmlns="http://www.w3.org/2000/svg">
<path d="M20 0H0V20H20V0Z" fill="#1BBCB2"/>
<path d="M2.64927 14.8255C3.98032 15.6697 5.55923 16.1582 7.25177 16.1582C12.0067 16.1582 15.8612 12.3033 15.8612 7.54878C15.8612 7.43007 15.8587 7.31224 15.8542 7.19476C16.0262 7.05942 17.0899 6.20685 17.3506 5.65877C17.3506 5.65877 16.4868 6.01775 15.6414 6.10232C15.6397 6.10232 15.6376 6.10271 15.636 6.10271C15.636 6.10271 15.6376 6.10188 15.6405 6.09982C15.7184 6.04777 16.8075 5.30641 16.9549 4.42308C16.9549 4.42308 16.344 4.74919 15.4885 5.03449C15.3469 5.08154 15.1986 5.12779 15.0458 5.17067C14.4944 4.58217 13.7106 4.21484 12.8405 4.21484C11.1717 4.21484 9.81942 5.56674 9.81942 7.2343C9.81942 7.46961 9.8465 7.69865 9.89771 7.91856C9.66451 7.909 6.11316 7.70989 3.69717 4.78413C3.69717 4.78413 2.25325 6.75533 4.55763 8.78232C4.55763 8.78232 3.85713 8.75441 3.25279 8.39332C3.25279 8.39332 3.03081 10.7814 5.64047 11.392C5.64047 11.392 5.12696 11.5865 4.30775 11.4478C4.30775 11.4478 4.76587 13.3774 7.08443 13.5577C7.08443 13.5577 5.25103 15.2139 2.64844 14.8253L2.64927 14.8255Z" fill="#2C3747"/>
</svg>
